<?xml version="1.0" encoding="utf-8"?>
<!-- Generator: Adobe Illustrator 26.4.1, SVG Export Plug-In . SVG Version: 6.00 Build 0)  -->
<svg version="1.1" id="Слой_1" xmlns="http://www.w3.org/2000/svg" xmlns:xlink="http://www.w3.org/1999/xlink" x="0px" y="0px"
	 viewBox="0 0 32 32" style="enable-background:new 0 0 32 32;" xml:space="preserve">
<style type="text/css">
	.st0{fill:#FFFFFF;}
</style>
<path class="st0" d="M0.1,32c0-0.8,0-1.6,0-2.4c0-1.2,0-1.2,1-1.7c1.2-0.6,2.4-0.5,3.5,0.1c0.9,0.5,1.9,0.9,3,0.9
	c0.4,0,0.8-0.1,1.2-0.2c0.2,0,0.4-0.2,0.3-0.5c0-0.5,0-0.9,0-1.5c-0.2,0-0.3,0-0.4,0.1c-1,0.5-1.9,0.3-2.9-0.1
	c-0.9-0.4-1.7-0.8-2.7-0.9s-2,0.1-2.9,0.6c-0.1,0-0.1,0.1-0.2,0.1c0,0,0,0-0.1,0c0-0.5,0-1.1,0-1.6c0-0.1,0.1-0.1,0.1-0.1
	c1-0.5,2-1.1,3.2-0.8c0.5,0.1,1,0.3,1.5,0.6c1.3,0.6,2.6,0.9,4,0.6C9,25.1,9.1,25,9.1,24.7c0-0.4,0-0.8,0-1.2c0-0.2-0.1-0.4-0.3-0.2
	c-1.1,0.6-2.1,0.3-3.1-0.1c-0.6-0.3-1.3-0.6-2-0.8c-1.2-0.3-2.3-0.1-3.3,0.4c-0.1,0-0.2,0.1-0.2,0.1s-0.1,0-0.2,0c0-0.1,0-0.3,0-0.4
	C0,16.1,0,9.6,0,3.2c0-0.3,0-0.5,0.4-0.6C3.7,1.7,7,0.8,10.2,0c0.4-0.1,0.6,0.1,0.6,0.5c0,10.3,0,20.6,0,30.9c0,0.4-0.2,0.6-0.6,0.6
	c-3.2,0-6.5,0-9.7,0C0.4,32,0.3,32,0.1,32L0.1,32z"/>
<path class="st0" d="M18.3,12.3c0,3.3,0,6.7,0,10c0,0.5,0,0.6-0.5,0.5c-0.1,0-0.2,0-0.3,0c-0.4-0.1-0.5-0.3-0.5-0.7
	c0-6.1,0-12.3,0-18.4c0-0.4-0.2-0.6-0.5-0.6c-1.3,0-2.7,0-4,0C12.2,3.1,12,3,12,2.6c0-1.1-0.1-0.9,0.9-0.9c1.7,0,3.4,0,5.1,0
	c0.4,0,0.5,0.1,0.5,0.5C18.3,5.6,18.3,9,18.3,12.3L18.3,12.3z"/>
<path class="st0" d="M12.8,26.3c0.7,0.2,1.4,0.3,2.1,0.6c0.5,0.2,1,0.4,1.5,0.7c0.8,0.4,1.6,0.3,2.4-0.1c0.7-0.3,1.4-0.6,2.1-0.9
	c1.3-0.4,2.5-0.2,3.7,0.4c0.3,0.1,0.5,0.2,0.8,0.4c1.1,0.6,2.3,0.6,3.4,0c0.9-0.5,1.7-0.8,2.7-0.9c0.3,0,0.5,0.1,0.5,0.5
	s0.1,0.8-0.1,1.1c-0.2,0.2-0.6,0.2-0.9,0.3c-0.6,0.2-1.1,0.4-1.6,0.7c-1.6,0.9-3.2,0.7-4.8-0.1c-0.5-0.2-0.9-0.4-1.4-0.6
	c-1.1-0.4-2,0.1-3,0.6c-1.2,0.6-2.4,0.9-3.7,0.6c-0.6-0.2-1.2-0.5-1.8-0.7c-0.8-0.4-1.6-0.7-2.4-0.4c-0.2,0.1-0.3,0-0.3-0.3
	s0-0.7,0-1s0.1-0.5,0.4-0.5c0.2,0,0.3,0,0.5,0C12.8,26.4,12.8,26.4,12.8,26.3L12.8,26.3z"/>
<path class="st0" d="M11.9,23.7c0-0.9,0-0.9,0.9-0.9c0.8,0,1.6,0.2,2.3,0.5c0.5,0.2,1,0.4,1.5,0.7c0.8,0.4,1.6,0.2,2.4-0.2
	c0.7-0.3,1.5-0.7,2.2-0.9c1.3-0.4,2.5,0,3.7,0.5c0.1,0.1,0.3,0.1,0.4,0.2c1.2,0.7,2.5,0.7,3.7,0c0.8-0.5,1.7-0.7,2.6-0.8
	c0.3,0,0.4,0.1,0.4,0.4s0,0.7,0,1c0,0.1-0.1,0.3-0.2,0.3c-0.9,0-1.7,0.5-2.5,0.9c-1.5,0.8-3,0.6-4.6-0.1c-0.6-0.3-1.2-0.5-1.8-0.7
	c-1-0.3-1.8,0.1-2.7,0.6c-1.1,0.6-2.2,0.9-3.4,0.7c-0.8-0.2-1.6-0.5-2.3-0.9s-1.5-0.6-2.3-0.4c-0.2,0-0.4-0.1-0.3-0.3
	C11.9,24,11.9,23.9,11.9,23.7L11.9,23.7z"/>
</svg>
