<?xml version="1.0" encoding="UTF-8"?>
<svg id="_Слой_1" data-name="Слой 1" xmlns="http://www.w3.org/2000/svg" viewBox="0 0 176 200">
  <defs>
    <style>
      .cls-1 {
        fill: #2e3192;
      }
    </style>
  </defs>
  <path class="cls-1" d="M38,200h-7c-2.08-7.33-4.15-14.66-6.2-21.87-8.78,.23-16.14,6.16-24.8,3.87,0-2.67,0-5.33,0-8,.98-.81,2.29-1.44,2.89-2.47,8.19-14.15,16.24-28.38,24.44-42.52,1.79-3.08,1.42-4.5-2.26-5.37-7.84-1.86-15.59-12.5-10.98-22.04,2.12-4.39,.44-7.24-2.28-10.32-7.37-8.36-6.31-17.38,.53-24.79,2.76-2.98,3.52-5.45,1.85-9.43-3.81-9.08,.67-17.75,10.01-21.15,4.75-1.73,7.29-5.43,7.84-10.56,.2-1.86,.61-3.91,1.59-5.44,3.52-5.48,8.36-8.63,15.25-7.91,3.6,.37,7.11,.6,9.78-3.09C61.04,5.64,64.19,2.95,67,0c5,0,10,0,15,0-.26,5.94,4.28,3.56,7.06,3.94,2.8,.38,5.56,.19,4.94-3.94h16c5.56,6.67,10.08,14.31,21.24,12.29,5.72-1.03,12.41,6.62,12.74,12.56,.29,5.1,2.43,9.07,7.23,10.93,10.28,3.96,14.23,11.55,10.5,21.67-1.4,3.79-.76,6.23,2.02,9.15,6.93,7.29,7.26,17.57,.46,24.74-2.83,2.98-4.15,6.06-2.3,10.47,3.11,7.4,1.02,13.85-5.49,18.54-2.79,2.01-6,3.44-9.17,5.22,.27,.65,.5,1.44,.9,2.15,8.19,14.66,16.38,29.33,24.7,43.92,.45,.8,2.09,.92,3.17,1.36v9c-2.89-.01-5.87,.43-8.64-.13-5.24-1.07-10.37-2.73-16.02-4.27-2.19,7.75-4.26,15.08-6.33,22.4h-7c-.53-1.38-.89-2.85-1.62-4.12-4.54-7.93-9.16-15.83-13.77-23.72-3.18-5.43-6.39-10.83-9.61-16.28-6.08,3.68-11.8,5.91-17.88,1.63-4.76-3.35-9.36-3.43-14.11-.07-3.91,2.77-8.14,3.27-12.56,1.33-1.74-.76-3.41-1.7-5.15-2.57-.82,.91-1.64,1.56-2.12,2.39-4.43,7.78-8.83,15.58-13.2,23.4-3.35,5.99-6.65,12-9.97,18Zm-13.8-102.15c-.24,1.79-.31,3.62-.75,5.36-1.88,7.44-.51,10.03,6.93,12.79,4.95,1.83,9.41,7.89,9.62,13.07,.25,6.4,2.35,8.38,9.07,7.97,7.26-.45,12.69,2.11,17.16,8.03,4.32,5.72,6.37,6.69,12.17,3.15,6.91-4.22,13.5-3.67,20.24,.58,3.59,2.26,6.89,1.88,9.71-2.15,4.79-6.84,11.09-10.8,20.09-9.59,3.47,.47,7.45-.98,7.44-5.44-.04-8.61,4.26-13.52,11.85-16.68,6.11-2.54,7-4.77,5.12-11.2-2.13-7.25-.88-13.46,4.68-18.74,3.24-3.07,3.71-7.01,.77-10.14-6.26-6.66-8.51-13.82-4.58-22.58,1.29-2.87-2.02-7.54-5.2-8.27-7.03-1.61-12.37-8.06-12.5-15.11-.09-4.77-4.53-8.69-9.18-7.81-7.04,1.33-12.44-1.17-16.76-6.59-.92-1.16-1.78-2.38-2.69-3.55-2.38-3.06-4.58-3.75-8.34-1.27-6.45,4.26-13.57,4.69-20.68,.93-6.79-3.59-6.76-3.49-11.69,3.03-4.36,5.76-9.91,8.78-17.44,7.44-5.09-.91-9.13,2.87-9.23,8.19-.11,5.82-5.84,13.24-11.37,14.71-5.17,1.38-7.08,3.98-5.55,9.31,2.42,8.46,.67,15.42-5.45,21.73-2.8,2.89-2.88,6.37,.39,9.57,3.66,3.59,6.97,7.49,6.18,13.26Zm7.78,41.03c-5.94,10.14-12.17,20.79-18.34,31.34,6.09-.95,11.83-1.85,17.41-2.72,1.92,5.6,3.52,10.25,5.24,15.27,7.9-9.9,19.64-31.89,19.16-35.52-4.22-.4-8.7-.06-12.58-1.42-3.84-1.35-7.08-4.43-10.89-6.96Zm111.11-1.49c-4.88,10.57-14.19,9.58-24.45,9.6,7.23,12.7,13.84,24.31,20.8,36.53,1.72-4.83,2.88-8.79,4.6-12.49,.62-1.34,2.68-2.96,3.97-2.87,4.63,.33,9.21,1.35,14.38,2.19-6.32-10.79-12.5-21.36-19.3-32.97Z"/>
  <path class="cls-1" d="M99.77,125.95c5.05-3.14,10.3-6.2,15.34-9.56,15-9.99,21.41-30.05,17.56-47.31-3.39-15.22-12.48-25.64-25.94-31.87-8.44-3.91-17.93-5.09-27.54-3.11-16.94,3.48-28.38,13.82-34.53,29.27-3.17,7.96-3.56,17-1.48,25.89,3.57,15.22,12.29,25.91,26.52,32.25,1.45,.65,2.99,1.57,3.9,2.8,.89,1.21,1.82,3.96,1.36,4.32-1.68,1.34-4.49,3.27-5.88,2.67-16.09-6.97-27.89-17.67-33.37-35.32-7.08-22.78-1.34-41.83,15.4-57.27,15.55-14.35,34.09-18.83,54.85-11.42,15.6,5.56,26.66,15.92,32.94,30.89,4.98,11.87,5.89,24.11,1.77,36.97-3.53,11.02-9.29,20.06-18.04,27.09-4.78,3.84-10.52,6.53-16.03,9.37-2.48,1.28-4.7-.66-6.86-5.67Z"/>
  <path class="cls-1" d="M104.93,85.02c1.91,5.73,4.04,11.4,5.61,17.21,.46,1.7-.05,4.37-1.19,5.58-.96,1.01-3.94,1.33-5.24,.59-4.49-2.57-8.81-5.53-12.86-8.76-2.42-1.93-3.98-1.97-6.43-.05-4.19,3.29-8.62,6.32-13.22,9-1.19,.69-4.02,.26-4.94-.74-1.14-1.23-1.86-3.79-1.41-5.39,1.68-5.93,3.92-11.71,5.9-17.4-5.18-3.93-10.19-7.51-14.9-11.45-1.41-1.18-3.05-4.65-2.72-4.95,1.95-1.73,4.36-3.6,6.82-3.95,4.05-.58,8.31-.39,12.41,.11,4.7,.57,6.02-2.41,7.16-5.77,1.47-4.32,2.56-8.77,4.25-12.99,.42-1.04,2.53-1.92,3.86-1.91,1.31,.01,3.35,.95,3.77,2,1.69,4.21,2.9,8.63,4.25,12.98,1.17,3.78,2.88,6.4,7.67,5.78,4.09-.53,8.36-.63,12.43-.07,2.31,.32,4.64,2.09,6.36,3.82,.39,.39-1.38,3.76-2.81,4.96-4.73,3.97-9.76,7.57-14.79,11.39Zm-26.82,8.02c9.26-6.55,10.32-7.27,19.47-.07-3.19-7.99-2.41-14.38,5.48-18.92-8.86,2.57-12.96-1.49-14.46-9.75q-5.3,9.37-16.32,10.04c8.18,4.14,9.75,10.12,5.83,18.7Z"/>
  <path class="cls-1" d="M93.79,130.3c-2.53,2.1-4.19,4.43-5.35,4.21-1.67-.33-4.12-2.5-4.14-3.91-.02-1.59,2.09-4.18,3.65-4.51,1.29-.27,3.13,2.14,5.83,4.21Z"/>
</svg>