<?xml version="1.0" encoding="utf-8"?>
<!-- Generator: Adobe Illustrator 26.4.1, SVG Export Plug-In . SVG Version: 6.00 Build 0)  -->
<svg version="1.1" id="_Слой_1" xmlns="http://www.w3.org/2000/svg" xmlns:xlink="http://www.w3.org/1999/xlink" x="0px"
	 y="0px" viewBox="0 0 59.3 59.3" style="enable-background:new 0 0 59.3 59.3;" xml:space="preserve">
<style type="text/css">
	.st0{fill:#2E3192;}
</style>
<path class="st0" d="M35.3,59.3h-5.6c0.3-4.4-1.3-4.5-4.2-1.5c-0.9-1.5-2-2.5-3.3-3.6c-0.4-0.4-1.1-0.4-1.7-0.6
	c-0.7,1.8-0.3,3.8-0.4,5.7H3.9c0-7.5-0.1-15,0-22.5c0-1.2,0.4-2.9,1.2-3.6C6.7,32,6.7,30.7,6.8,29c0.1-1.3-0.4-2.1-1.5-2.8
	c-2.3-1.4-4.1-3.3-4.8-6C0.4,20,0.2,19.8,0,19.6c0-3.7,0-7.3,0-11c0.2-0.4,0.4-0.8,0.6-1.2C1.6,4,3.8,1.7,7.3,0.6
	C7.7,0.5,8,0.2,8.3,0c1.4,0,2.8,0,4.2,0c0.2,0.1,0.3,0.3,0.5,0.3c4.3,1.2,6.9,4,7.8,8.4c0.1,0.4,0.5,0.7,0.8,0.9
	c1.4,0.8,1.8,2.1,1.3,4.1c-0.4,1.8-2.1,1.4-3.5,1.7c0.5,2.3,1.1,4.5,1.6,6.7c0.3,1.2-0.2,1.8-1.3,2c-1.2,0.1-1.6,0.8-1.6,2
	c0.1,2-0.7,3.5-2.7,4.1c-0.9,0.3-1.1,0.8-0.7,1.5c0.6,1,1.1,2.1,1.8,3c1.5,2.1,2.6,4.4,3.1,7c0.4,2.3,0.4,2.3,2.7,2.1
	c0.5,0,1.2-0.4,1.3-0.7c0.1-0.5,0-1.2-0.4-1.6c-0.4-0.5-1.1-0.8-1.5-1.1c1.6-1.7,2.8-3,4.1-4.4c0.8,0.8,1.9,2,3.1,1.8
	c0.8-0.4,0.9-2.4,0.8-3.1c0.8-0.5,1.8-0.8,1.9-1.2c0.2-1.6,0.1-3.2,0.1-5h-6.7c0-3.7,0-7.2,0-10.8c0.6-1.2,2.6-0.6,3.8-0.7
	c0-1.3,0-2.3,0-3.4c0-1.3,0.1-2.5-1.2-3.5c-1.2-0.9-0.9-2.7,0.3-3.8c0.9-0.9,2.9-1.1,3.5-0.2c1,1.6,2.5,1.3,3.9,1.3
	c1.2,0,2.5-0.1,3.7,0c1.1,0.1,1.3-0.4,1.3-1.4c0-2.1,0.1-4.2,0.1-6.4h17.2c0,4.7-0.1,9.4,0,14c0,1-0.3,1.3-1.2,1.3
	c-2.8,0.1-2.8,0.2-2.7,3.1c0,0.2,0.1,0.4,0.2,0.9h5.5v13.4h-3.8c0,3.3,0,6.5,0,9.6c0,1.1,0.1,1.9,1,2.7c1.2,1,1.1,2.9,0,3.9
	c-1.2,1.1-3,1.1-4.1-0.2c-0.3-0.3-0.6-0.8-0.9-0.9c-2.1-0.1-4.3,0-6.4,0c-0.1,1.3-0.8,1.9-1.9,1.9c-0.3,0-0.7,0-1,0.1
	c-0.9,0.3-1.2,1.2-0.6,2c0.5,0.7,1.5,1.4,1.4,1.9c-0.2,0.9-1.5,1.6-2.1,2.4c-1.5,1.5-1.4,1.5-3,0.2C35.4,54.6,35.3,57.5,35.3,59.3
	L35.3,59.3z M36.4,28.7c-0.6,0-0.9,0.1-1.2,0c-1.2-0.3-1.7,0.2-1.6,1.5c0.2,1.2-0.6,3.4,0.6,4.2c1.4,0,1.4,0.8,1.3,1.9
	c-0.1,0.5,0.3,1.5,0.8,1.7c0.5,0.2,1.2-0.3,1.8-0.5c0.2-0.1,0.3-0.3,0.4-0.4c1.4-1.8,2.3,0.8,3.5,1.6c1.5,1.5,1.5,1.4,0.1,3
	c-0.3,0.4-0.6,1.1-0.5,1.5c0.1,0.4,0.9,0.8,1.3,0.8c1.4,0,2.7,0,2.2,2.1c1.9,0,3.7,0,5.5,0c1.7,0,3.2-1.5,3.2-3.2
	c0-2.9-0.1-5.8,0-8.8c0-1.2-0.4-1.5-1.5-1.5c-2,0.1-4,0-6.1,0V19.2h5.6c0-0.9-0.1-1.6,0-2.4c0.1-1.1-0.2-1.5-1.4-1.5
	c-2.7,0.1-5.3,0-8,0c-2.1,0-2.1,0-2-2c0-0.8-0.1-1.7,0-2.5c0.1-1-0.3-1.3-1.2-1.3c-2.9,0.1-7.1-1-8.3,2.5c-0.4,1.6-0.1,3.4-0.1,5.1
	c2.8,0.5,5.4,0.6,6.9-2.5c0.7,0.6,1.1,0.9,1.7,1.5c-2.6,1.6-3.1,3.8-2.9,6.4C36.5,24.5,36.4,26.6,36.4,28.7L36.4,28.7z M24,46
	c-5.4,0.1-10.6,0.5-11.9-6c-0.5-2.4-0.4-7-4-6.4c-1.7,0.3-2.6,1.5-2.4,3.3c0.2,1.9,0.5,3.8,0.8,5.7c0.6,3.7,2.6,6.5,6,8
	c3.4,1.6,7.1,0.8,10.7,0.9c0.2,0,0.6-0.5,0.6-0.8C24,49.3,24,47.7,24,46L24,46z M42.1,13.4c4.3,0,8.4,0,12.5,0
	c0.3,0,0.8-0.5,0.8-0.8c0.1-3.3,0.1-6.5,0-9.8c0-0.3-0.5-0.9-0.8-0.9c-3.8,0-7.7,0-11.5,0c-0.3,0-0.9,0.5-0.9,0.8
	C42.1,6.2,42.1,9.7,42.1,13.4z M16.1,26.8c-1.8,0.2-3.1-0.5-4.6-1.3c-0.3-0.2-0.3-1-0.4-1.5c0.6,0,1.1,0,1.7,0.1
	c1.5,1.3,3.3,1.2,3.6-1c1.6-0.5,3.2-0.5,2.4-2.7c-0.5-1.4-1-2.8-1.6-4.1c-0.2-0.5-1-0.9-1.6-1c-1.5-0.1-3-0.1-4.4,0
	c-2.7-0.1-2.6,1.2-2.7,3.6c-2.2,0.6-2.2,1-0.9,2.7c0.5,0.6,0.9,1.6,0.9,2.4c0.1,2.1,0,4.2,0,6.4c0,0.7,0.1,1.2,1.1,1.4
	c1.3,0.4,2.5,1.5,3.7,2.4c0.1-0.1,0.2-0.2,0.3-0.3c-0.2-0.5-0.7-1-0.7-1.5c-0.1-1.4-0.8-2-2.1-1.8c-0.5-1.7-0.4-1.8,1.2-1.8
	C13.7,28.7,15.5,29,16.1,26.8L16.1,26.8z M31.9,36.2c-0.6,3-2.2,4.9-5.6,3.1c-0.9-0.5-1.5-0.4-1.5,0.6c0,2.2,1.6,3,3.5,1.9
	c5.2-4.4,13,1,10.6,7.4c-1.7,4.2-6.5,5.6-10.2,3c-2.4-1.8-3.2,0.3-3.8,2.2c0.8-0.1,1.6-0.1,2.3-0.4c2-0.8,4,0.2,4.5,2.2
	c0.1,0.4,0.4,1.1,0.7,1.1c0.7,0.2,1.1-0.2,1.3-1.1c0.6-2.4,2.7-3.2,4.8-2.1c0.5,0.2,1.1,0.2,1.6,0.2c0-0.6,0.1-1.2-0.1-1.7
	c-1-2.2-0.3-4.1,2-4.8c1-0.3,1.5-0.9,1.2-1.4c-2.8-1.6-4.9-2.7-3-5.9c0.2-0.3,0.1-1-0.1-1.3c-0.1-0.2-0.8-0.2-1.1-0.1
	c-3.1,1.4-4.7,0.6-5.5-2.7C32.9,36.5,32.5,36.4,31.9,36.2L31.9,36.2z M47.8,21.1c0,2.9,0,5.6,0,8.4c0,0.4,0.6,1.1,0.9,1.1
	c2.6,0.1,5.2,0,7.8,0c0.3,0,0.8-0.3,0.8-0.5c0.1-2,0-3.9,0-5.9c-0.1,0-0.2-0.1-0.3-0.1c-1.4,1.7-2.9,3.3-4.5,5.2
	c-0.8-1-1.6-1.9-2.4-2.9c0.3-0.3,0.8-0.6,1.3-1c0.5,0.4,0.8,0.6,1.2,1c1.4-1.7,2.8-3.3,4.3-5.1L47.8,21.1L47.8,21.1z M18.1,57.3
	c0-0.8-0.1-1.4,0-2.1c0.2-1.3-0.3-1.7-1.6-1.7c-4.3-0.2-7.6-2.1-10-5.7c-0.2-0.3-0.5-0.6-0.9-1.1c0.1,3.8-0.2,7.2,0.1,10.7
	L18.1,57.3L18.1,57.3z M17.4,5.6c-3.5-4.8-10.3-4.8-13.9,0c2,0.3,2.3,1.6,2.3,3.2c0,0.2,0.7,0.7,1.1,0.7c0.2,0,0.8-0.5,0.8-0.9
	c0.2-1.7-0.7-4.7,2-4.8c4.5-0.3,3.6,1.3,3.8,4.8C13.5,9,14,9.6,14.3,9.5c0.4,0,1-0.6,1-0.9C15.3,7.2,15.6,6,17.4,5.6L17.4,5.6z
	 M26.8,26.9c2.5,0,4.8,0,7,0c0.2,0,0.7-0.5,0.7-0.7c0.1-1.5,0-3,0-4.5c-0.1,0-0.2-0.1-0.4-0.1c-1.1,1.3-2.3,2.5-3.4,3.8
	c-0.8-0.7-1.5-1.2-2-1.9c-0.2-0.3-0.2-0.9-0.2-1.4c0.4,0,0.8-0.1,1.1-0.1c0.5,0,1.2,0.1,1.6-0.2c0.8-0.6,1.5-1.5,2.4-2.6
	c-2.3,0-4.2,0-6.1,0c-0.3,0-0.7,0.5-0.7,0.7C26.7,22.2,26.8,24.4,26.8,26.9L26.8,26.9z M2.1,13.4c6,0,12,0,18,0
	c1.6,0.1,1-1.8-0.1-1.9c-5.6,0-11.2,0-16.8,0C1.9,11.5,1.6,12,2.1,13.4z M29.2,49.8c1.2,0,2.9,0.2,3.9-1.5c0.3-0.5,0.4-1.3,0.2-1.8
	c-0.1-0.3-1-0.5-1.5-0.5c-0.6-0.1-1.3,0.1-1.9-0.1c-0.8-0.1-2-1.6-2.4-1.7c-0.6,0.5-1.1,1.1-1.6,1.7c-0.2,0.2,0,0.7,0,1
	C25.9,48.9,27,49.8,29.2,49.8z M7.1,24.1c-1.7-2.1-3.5-4-1.1-6.4c0.5-0.5,0.6-1.3,0.9-2c-0.6-0.1-1.2-0.4-1.7-0.4
	c-3.4,0-3.7,0.4-3,3.8C2.6,21.7,4.8,24.1,7.1,24.1L7.1,24.1z M32.5,51.6c0.1,0.1,0.1,0.2,0.2,0.3c3.1-0.6,5.4-3.1,4.5-6.3
	c-0.7-2.3-3-3.8-5.4-3.3c-0.7,0.1-1.2,0.8-1.8,1.2c1.8,0.9,4.4,0.1,5.2,2.4C36.1,48.3,34.3,50.2,32.5,51.6z M17.8,43.6
	c0.2-3.3-2.1-7.4-4-7.3C13.2,39.8,15.2,44.1,17.8,43.6z M11.6,9.4c0-0.5,0.1-1,0-1.4c-0.1-0.9,0.5-2.3-1-2.3c-1.5,0-1,1.4-1,2.3
	C9.5,9.7,9.7,9.8,11.6,9.4L11.6,9.4z M2.2,9.4C3,9.6,3.7,9.8,3.9,8.7c0-0.3-0.4-1.1-0.6-1.1C2.2,7.7,2.1,8.5,2.2,9.4z M31,8.5
	c-0.7-0.4-1-0.7-1.4-0.7c-0.3,0-0.6,0.5-0.9,0.8C29.8,9.8,29.7,9.6,31,8.5L31,8.5z M54.7,48.2c0.4-0.6,0.8-1,0.8-1.4
	c0-0.3-0.6-0.8-0.8-0.8c-0.4,0.1-0.8,0.5-0.9,0.9C53.7,47.3,54.2,47.6,54.7,48.2L54.7,48.2z M19.2,8.7c-0.6-0.5-1-0.8-1.3-1.1
	c-0.2,0.3-0.7,0.7-0.6,0.9C17.3,9,17.7,9.4,18,9.5C18.2,9.6,18.6,9.1,19.2,8.7L19.2,8.7z"/>
<path class="st0" d="M47,9c1.6-1.9,3.2-3.7,4.7-5.6c1.6,0.5,1.8,0.8,0.8,2c-1.6,1.9-3.3,3.8-4.9,5.7c-0.5,0.6-0.9,0.6-1.4,0
	c-0.3-0.4-0.8-0.6-1-1.1C45,9.7,45,9,45,8.5C45.7,8.7,46.3,8.6,47,9L47,9z"/>
</svg>
