<?xml version="1.0" encoding="utf-8"?>
<!-- Generator: Adobe Illustrator 26.4.1, SVG Export Plug-In . SVG Version: 6.00 Build 0)  -->
<svg version="1.1" id="_Слой_1" xmlns="http://www.w3.org/2000/svg" xmlns:xlink="http://www.w3.org/1999/xlink" x="0px"
	 y="0px" viewBox="0 0 200 200" style="enable-background:new 0 0 200 200;" xml:space="preserve">
<style type="text/css">
	.st0{fill:#2E3192;}
</style>
<path class="st0" d="M161,200H94c-1.6-1.9-3.4-3.7-4.9-5.8c-3.1-4.4-2.7-9-1-13.8c0.5-1.3,0.3-3.2-0.4-4.4c-0.3-0.6-2.7-0.4-3.9,0.1
	c-2.8,1.3-5.7,2.9-8.2,4.7c-3.8,2.8-7.1,2.3-11,0.1c-28.5-16-48.2-39.4-58.4-70.5C3.4,101.9,2,92.9,0,84c0-21,0-42,0-63
	C18.4,15.4,36.7,9.9,55.1,4.3C59.1,3,63,1.4,67,0c2,0,4,0,6,0c1.1,0.6,2.1,1.5,3.3,1.9c19.2,5.8,38.5,11.6,57.8,17
	c4.8,1.3,6.2,3.6,6.1,8.4c-0.3,13.8-0.2,27.6,0,41.4c0,1.9,1.3,5,2.7,5.5c7.9,2.8,10.9,8.7,10.4,16.3c-0.4,7.3,1.5,13.8,4.7,20.1
	c0.9,1.8,2.7,3.8,4.6,4.5c8.2,3.3,16.5,5.8,25.6,5.1c3.9-0.3,7.9,0.6,11.9,0.9v65c-12.7,0.7-26-0.5-36.1,9.7
	c-0.6,0.6-1.7,0.7-2.1,1.3C161.3,197.8,161.2,199,161,200L161,200z M127,193.3C127,193.3,127,193.2,127,193.3
	c4.2-0.1,8.4-0.5,12.5,0c11.6,1.6,21.4-1.9,30.4-9.3c2.4-2,3.6-3.7,3.6-6.9c-0.2-15.3-0.3-30.7,0.1-46c0.1-4.4-1.4-6.3-5.4-7.1
	c-3.2-0.7-6.6-1.5-9.4-3.2c-2.5-1.4-5-3.7-6.3-6.2c-4.2-8.2-6.6-16.9-6-26.4c0.3-5-3.6-8.1-8.2-8.1c-4.4,0-7.7,3.6-8.1,8.4
	c-0.7,7.5,1,14.5,4,21.3c4.3,9.6,3.7,10.2-6.8,10.2c-12,0-24-0.1-36,0.1c-6.5,0.1-10.1,4.9-6.9,9.7c1.3,2,5,2.4,7.5,3.6
	c1.6,0.8,2.9,1.9,4.4,2.9c-1.2,1.3-2.2,2.6-3.5,3.8c-1.9,1.8-5,3.1-5.7,5.3c-1.4,4.2,1.6,7,6.5,8c2.2,0.4,4.2,1.9,6.3,2.8
	c-1.7,1.4-3.2,3.3-5.1,4.2c-4.6,2.2-6.4,6.5-3.3,10.1c1.4,1.6,4.3,1.9,6.5,3c1.7,0.8,3.1,2,4.7,3c-1.3,1.2-2.3,2.8-3.8,3.5
	c-3.5,1.6-6,3.6-5.2,7.9c0.9,4.7,4.4,5.4,8.3,5.4C110.4,193.3,118.7,193.3,127,193.3L127,193.3z M31.6,98.3
	c7,19.5,19.6,33.4,36.9,42.9c1.9,1.1,6.6-2.3,9.7-4.2c0.7-0.4,0.4-3.5-0.2-5.1c-2.5-6.4-0.9-13.4,5.3-16.3c4.1-1.9,9.3-1.7,13.9-2.5
	c1.7-0.3,4.1-0.4,4.8-1.5c7-11.4,11-23.8,11.1-37.8C85.7,82.1,58.8,90.2,31.6,98.3L31.6,98.3z M6.6,72c3.7-1.1,6.5-2.2,9.4-2.6
	c3.5-0.5,4.1-2.4,4-5.5c-0.2-7.3,0-14.7-0.1-22c0-3.2,1.3-4.9,4.2-5.9C38.3,31.1,52.4,26,66.5,21.1c2.2-0.7,4.9-0.7,7.2-0.1
	c13.2,3.5,26.3,7.3,39.3,11.2c3.1,0.9,5.8,3,8.7,4.5c2,0.4,4.3-0.3,6.7-1c3.1-0.8,5.1-1.9,5-6c-0.1-3.9-2.2-4.7-5-5.6
	c-15.8-4.7-31.7-9-47.3-14.2c-7.8-2.6-14.9-2.5-22.6,0.1C43.3,15.2,27.7,19.5,12.2,24c-3.9,1.1-6,2.5-5.7,7.4c0.6,11,0.2,22,0.1,33
	C6.6,66.7,6.6,68.9,6.6,72L6.6,72z M78.7,145.1c-1.5,1-3.2,2.6-5.1,3.1c-2.1,0.6-5.2,1.2-6.8,0.1c-7-4.7-14-9.6-20.3-15.2
	c-9.9-8.7-16.5-19.9-21.3-32.7c-4.6,1.3-9,2.6-13.1,3.9c-0.2,0.8-0.3,1.2-0.3,1.5c0,0.5,0.1,1,0.3,1.5c9.4,28.5,26.8,50.6,52.6,66
	c6.1,3.6,17.4-1.1,19.1-7.9c0.7-2.5,1.3-5.1,1.6-6.3C82.9,154,80.9,149.8,78.7,145.1L78.7,145.1z M113.7,40.1
	c-1.3-0.7-1.7-1.1-2.3-1.3C98.3,35,85.2,31.1,72.1,27.4c-1.2-0.3-2.7-0.2-3.8,0.2c-13,4.6-26,9.2-39,14c-1.1,0.4-2.7,1.5-2.7,2.4
	c-0.2,7.2-0.1,14.4-0.1,22.3C56,57.4,84.5,48.8,113.7,40.1z M193.4,126.7c-3.3,0-6.1,0.3-8.9-0.1c-3.6-0.4-4.6,0.9-4.6,4.4
	c0.1,15.2,0.1,30.3,0.1,45.5c0,1.1,0.3,2.2,0.5,3.5c3.4,0,6.6-0.1,9.8,0c2.5,0.1,3.4-0.7,3.4-3.5c-0.2-12-0.2-24-0.2-36
	C193.4,136.1,193.4,131.7,193.4,126.7L193.4,126.7z M27.6,78.8c0.9-0.1,1.7-0.1,2.5-0.3c26.8-8,53.5-16.1,80.3-24.1
	c4.1-1.2,3.7-3.5,2.3-6.6c-1.5,0.3-2.9,0.5-4.3,0.9c-25.8,7.7-51.6,15.6-77.4,23.2C26.8,73,25.9,74.9,27.6,78.8L27.6,78.8z
	 M112.5,60.8c-2,0.6-3.8,1.1-5.5,1.6c-24.7,7.4-49.4,14.9-74.1,22.1c-4.2,1.2-5,3-3.4,6.9c0.8-0.1,1.6-0.1,2.4-0.3
	c26.1-7.8,52.3-15.6,78.4-23.3C114,66.7,114.5,64.4,112.5,60.8L112.5,60.8z M126.6,113.1c-1.2-8.2-2.7-15.8-3.4-23.4
	c-0.5-5.2,1.9-9.7,6.1-13.1c2.2-1.8,6.1-3.1,3.9-6.7c-0.6-1-4.6-0.1-7,0.1c-4.7,0.4-6.6,2.8-6.7,7.7c-0.3,11.6-3.6,22.6-9.1,32.9
	c-0.3,0.6-0.3,1.5-0.5,2.5H126.6L126.6,113.1z M133.1,42c-10.9,0.6-13.8,2.6-12.3,8.7C130.3,50,133.6,47.7,133.1,42z M133.3,55.3
	c-10.8,0.7-14,2.9-12.5,9.2c2.7-0.8,5.3-2.1,8-2.4C133.7,61.8,133.5,58.8,133.3,55.3L133.3,55.3z M7.4,85.2c3.5-1.1,6.1-2.1,8.9-2.6
	c4.7-0.8,4.7-3.4,3.2-7.3c-4.2,1.2-8.2,2.4-12.4,3.7C7.2,81,7.3,82.8,7.4,85.2z M21.4,86.8c-0.7,0.7-1.4,1.3-2.1,1.9
	c-2.9,0.8-5.9,1.3-8.5,2.6c-1.1,0.6-1.3,2.9-1.9,4.4c1.2,0.4,2.6,1.3,3.7,1c2.7-0.5,5.5-1.4,8-2.5c0.9-0.4,1.8-2.1,1.8-3.2
	C22.6,89.7,21.8,88.3,21.4,86.8L21.4,86.8z"/>
<path class="st0" d="M172,82.4c-1.4,0.4-2.9,1.2-4.2,1c-1.7-0.3-4.4-1.3-4.6-2.3c-1.2-7.7-5.2-13-11.7-17c-1.1-0.7-1.4-2.8-2.1-4.3
	c1.9-0.4,4.3-1.8,5.6-1.1c8.6,4.6,13.5,12,14.9,21.7C170.6,81,171.3,81.7,172,82.4L172,82.4z"/>
<path class="st0" d="M153.2,28.6c1.7,2.2,3.6,3.6,3.4,4.5c-0.4,1.5-2.1,2.7-3.2,4c-1.3-1.4-3-2.6-3.7-4.3
	C149.5,32.3,151.5,30.7,153.2,28.6L153.2,28.6z"/>
<path class="st0" d="M164.8,33.8c2,2.4,4.4,4.2,4.1,5.1c-0.5,1.7-2.6,2.8-4.1,4.2c-1-1.3-2.5-2.6-2.7-4.1
	C162,37.7,163.4,36.2,164.8,33.8L164.8,33.8z"/>
<path class="st0" d="M192.6,95.6c-1.4,1.7-2.7,3.4-4.1,5.2c-1.3-1.6-2.5-3.2-3.8-4.8c2-1,4-1.9,6-2.9L192.6,95.6L192.6,95.6z"/>
<path class="st0" d="M183.1,63.5c-1.7-2.5-3.7-4.3-3.4-5c0.8-1.5,2.6-2.8,4.2-3.5c0.5-0.2,3,2.1,2.8,2.8
	C186.3,59.5,184.8,61,183.1,63.5z"/>
<path class="st0" d="M190.2,88.6c-1.9-2.1-4.1-3.5-3.9-4.6c0.2-1.4,2.4-3.4,3.7-3.4c1.3,0,3.2,2,3.7,3.5
	C194,84.9,191.9,86.5,190.2,88.6L190.2,88.6z"/>
<path class="st0" d="M175.6,42.5c1.5,2.4,3.2,3.9,3.2,5.4c0,1.1-2.5,3.2-3.4,3c-1.4-0.3-3.2-2.2-3.4-3.6
	C171.8,46.1,173.8,44.7,175.6,42.5z"/>
<path class="st0" d="M191.4,67.4c-0.3,2.1-0.4,4.3-1.2,6.2c-0.2,0.5-3,0.5-4-0.2c-0.9-0.6-1.8-3.2-1.4-3.7c1.4-1.4,3.4-2.3,5.2-3.4
	C190.4,66.7,190.9,67.1,191.4,67.4L191.4,67.4z"/>
<path class="st0" d="M182.4,105c1.7,1.3,3.3,2.6,5,4c-0.6,0.7-1.5,2-1.6,1.9c-1.8-1.1-3.5-2.3-5.3-3.5
	C180.5,107.4,182.4,105,182.4,105z"/>
</svg>
