<?xml version="1.0" encoding="utf-8"?>
<!-- Generator: Adobe Illustrator 26.4.1, SVG Export Plug-In . SVG Version: 6.00 Build 0)  -->
<svg version="1.1" id="_Слой_1" xmlns="http://www.w3.org/2000/svg" xmlns:xlink="http://www.w3.org/1999/xlink" x="0px"
	 y="0px" viewBox="0 0 176 200" style="enable-background:new 0 0 176 200;" xml:space="preserve">
<style type="text/css">
	.st0{fill:#2E3192;}
</style>
<path class="st0" d="M38,200h-7c-2.1-7.3-4.1-14.7-6.2-21.9C16,178.4,8.7,184.3,0,182c0-2.7,0-5.3,0-8c1-0.8,2.3-1.4,2.9-2.5
	c8.2-14.1,16.2-28.4,24.4-42.5c1.8-3.1,1.4-4.5-2.3-5.4c-7.8-1.9-15.6-12.5-11-22c2.1-4.4,0.4-7.2-2.3-10.3
	c-7.4-8.4-6.3-17.4,0.5-24.8c2.8-3,3.5-5.5,1.9-9.4c-3.8-9.1,0.7-17.8,10-21.2c4.8-1.7,7.3-5.4,7.8-10.6c0.2-1.9,0.6-3.9,1.6-5.4
	c3.5-5.5,8.4-8.6,15.2-7.9c3.6,0.4,7.1,0.6,9.8-3.1C61,5.6,64.2,3,67,0c5,0,10,0,15,0c-0.3,5.9,4.3,3.6,7.1,3.9
	C91.9,4.3,94.6,4.1,94,0h16c5.6,6.7,10.1,14.3,21.2,12.3c5.7-1,12.4,6.6,12.7,12.6c0.3,5.1,2.4,9.1,7.2,10.9
	c10.3,4,14.2,11.5,10.5,21.7c-1.4,3.8-0.8,6.2,2,9.2c6.9,7.3,7.3,17.6,0.5,24.7c-2.8,3-4.1,6.1-2.3,10.5c3.1,7.4,1,13.8-5.5,18.5
	c-2.8,2-6,3.4-9.2,5.2c0.3,0.7,0.5,1.4,0.9,2.2c8.2,14.7,16.4,29.3,24.7,43.9c0.4,0.8,2.1,0.9,3.2,1.4v9c-2.9,0-5.9,0.4-8.6-0.1
	c-5.2-1.1-10.4-2.7-16-4.3c-2.2,7.8-4.3,15.1-6.3,22.4h-7c-0.5-1.4-0.9-2.9-1.6-4.1c-4.5-7.9-9.2-15.8-13.8-23.7
	c-3.2-5.4-6.4-10.8-9.6-16.3c-6.1,3.7-11.8,5.9-17.9,1.6c-4.8-3.4-9.4-3.4-14.1-0.1c-3.9,2.8-8.1,3.3-12.6,1.3
	c-1.7-0.8-3.4-1.7-5.2-2.6c-0.8,0.9-1.6,1.6-2.1,2.4c-4.4,7.8-8.8,15.6-13.2,23.4C44.6,188,41.3,194,38,200L38,200z M24.2,97.8
	c-0.2,1.8-0.3,3.6-0.8,5.4c-1.9,7.4-0.5,10,6.9,12.8c5,1.8,9.4,7.9,9.6,13.1c0.2,6.4,2.3,8.4,9.1,8c7.3-0.4,12.7,2.1,17.2,8
	c4.3,5.7,6.4,6.7,12.2,3.1c6.9-4.2,13.5-3.7,20.2,0.6c3.6,2.3,6.9,1.9,9.7-2.1c4.8-6.8,11.1-10.8,20.1-9.6c3.5,0.5,7.4-1,7.4-5.4
	c0-8.6,4.3-13.5,11.9-16.7c6.1-2.5,7-4.8,5.1-11.2c-2.1-7.2-0.9-13.5,4.7-18.7c3.2-3.1,3.7-7,0.8-10.1c-6.3-6.7-8.5-13.8-4.6-22.6
	c1.3-2.9-2-7.5-5.2-8.3c-7-1.6-12.4-8.1-12.5-15.1c-0.1-4.8-4.5-8.7-9.2-7.8c-7,1.3-12.4-1.2-16.8-6.6c-0.9-1.2-1.8-2.4-2.7-3.6
	c-2.4-3.1-4.6-3.8-8.3-1.3c-6.4,4.3-13.6,4.7-20.7,0.9c-6.8-3.6-6.8-3.5-11.7,3c-4.4,5.8-9.9,8.8-17.4,7.4c-5.1-0.9-9.1,2.9-9.2,8.2
	c-0.1,5.8-5.8,13.2-11.4,14.7c-5.2,1.4-7.1,4-5.5,9.3c2.4,8.5,0.7,15.4-5.5,21.7c-2.8,2.9-2.9,6.4,0.4,9.6
	C21.7,88.2,25,92.1,24.2,97.8L24.2,97.8z M32,138.9C26,149,19.8,159.7,13.6,170.2c6.1-0.9,11.8-1.9,17.4-2.7
	c1.9,5.6,3.5,10.2,5.2,15.3c7.9-9.9,19.6-31.9,19.2-35.5c-4.2-0.4-8.7-0.1-12.6-1.4C39,144.5,35.8,141.4,32,138.9L32,138.9z
	 M143.1,137.4c-4.9,10.6-14.2,9.6-24.4,9.6c7.2,12.7,13.8,24.3,20.8,36.5c1.7-4.8,2.9-8.8,4.6-12.5c0.6-1.3,2.7-3,4-2.9
	c4.6,0.3,9.2,1.4,14.4,2.2C156.1,159.6,149.9,149,143.1,137.4L143.1,137.4z"/>
<path class="st0" d="M99.8,125.9c5.1-3.1,10.3-6.2,15.3-9.6c15-10,21.4-30.1,17.6-47.3c-3.4-15.2-12.5-25.6-25.9-31.9
	c-8.4-3.9-17.9-5.1-27.5-3.1c-16.9,3.5-28.4,13.8-34.5,29.3c-3.2,8-3.6,17-1.5,25.9c3.6,15.2,12.3,25.9,26.5,32.2
	c1.4,0.7,3,1.6,3.9,2.8c0.9,1.2,1.8,4,1.4,4.3c-1.7,1.3-4.5,3.3-5.9,2.7c-16.1-7-27.9-17.7-33.4-35.3c-7.1-22.8-1.3-41.8,15.4-57.3
	C66.7,24.4,85.2,19.9,106,27.3c15.6,5.6,26.7,15.9,32.9,30.9c5,11.9,5.9,24.1,1.8,37c-3.5,11-9.3,20.1-18,27.1
	c-4.8,3.8-10.5,6.5-16,9.4C104.1,132.9,101.9,130.9,99.8,125.9L99.8,125.9z"/>
<path class="st0" d="M104.9,85c1.9,5.7,4,11.4,5.6,17.2c0.5,1.7-0.1,4.4-1.2,5.6c-1,1-3.9,1.3-5.2,0.6c-4.5-2.6-8.8-5.5-12.9-8.8
	c-2.4-1.9-4-2-6.4-0.1c-4.2,3.3-8.6,6.3-13.2,9c-1.2,0.7-4,0.3-4.9-0.7c-1.1-1.2-1.9-3.8-1.4-5.4c1.7-5.9,3.9-11.7,5.9-17.4
	C66,81.1,61,77.5,56.2,73.6c-1.4-1.2-3-4.7-2.7-4.9c2-1.7,4.4-3.6,6.8-3.9c4.1-0.6,8.3-0.4,12.4,0.1c4.7,0.6,6-2.4,7.2-5.8
	c1.5-4.3,2.6-8.8,4.2-13c0.4-1,2.5-1.9,3.9-1.9c1.3,0,3.3,1,3.8,2c1.7,4.2,2.9,8.6,4.2,13c1.2,3.8,2.9,6.4,7.7,5.8
	c4.1-0.5,8.4-0.6,12.4-0.1c2.3,0.3,4.6,2.1,6.4,3.8c0.4,0.4-1.4,3.8-2.8,5C115,77.6,109.9,81.2,104.9,85L104.9,85z M78.1,93
	c9.3-6.6,10.3-7.3,19.5-0.1c-3.2-8-2.4-14.4,5.5-18.9c-8.9,2.6-13-1.5-14.5-9.8c-3.5,6.2-9,9.6-16.3,10C80.5,78.5,82,84.5,78.1,93z"
	/>
<path class="st0" d="M93.8,130.3c-2.5,2.1-4.2,4.4-5.3,4.2c-1.7-0.3-4.1-2.5-4.1-3.9c0-1.6,2.1-4.2,3.7-4.5
	C89.2,125.8,91.1,128.2,93.8,130.3L93.8,130.3z"/>
</svg>
