<?xml version="1.0" encoding="UTF-8"?>
<svg id="_Слой_1" data-name="Слой 1" xmlns="http://www.w3.org/2000/svg" viewBox="0 0 200 200">
  <defs>
    <style>
      .cls-1 {
        fill: #2e3192;
      }
    </style>
  </defs>
  <path class="cls-1" d="M148.98,200H0V0C45.27,0,90.62,0,135.98,0c.72,1.23,1.24,2.67,2.21,3.67,3.7,3.81,7.37,7.68,11.4,11.13,2.96,2.54,3.9,5.45,3.84,9.18-.16,9.46,.03,18.93-.17,28.4-.08,3.95,1.06,6.17,5.09,7.74,11.73,4.6,23.21,9.82,34.82,14.71,2.19,.92,4.55,1.45,6.84,2.17v49c-1.02,1.74-2.53,3.37-2.98,5.25-2.75,11.45-8.29,21.46-16.74,29.43-6.84,6.45-14.75,11.77-22.16,17.62-1.55,1.22-4.31,2.59-4.29,3.84,.12,6.51-1.68,12.33-4.85,17.86ZM123.13,6.78c-3.97,0-7.11,0-10.25,0-33.17,.03-66.34,.04-99.51,.12-6.54,.02-6.62,.15-6.63,6.67-.07,57.81-.12,115.63-.15,173.44,0,5.71,.73,6.26,6.9,6.26,25.67-.01,51.34,0,77.01,0,16.5,0,33.01,.07,49.51-.03,2.02-.01,4.62-.28,5.92-1.51,2.19-2.09,.44-10.19-2.16-12.07-4.59-3.32-9.25-6.54-13.83-9.88-16.12-11.74-26.59-27.32-28.9-47.15-1.53-13.17-.71-26.6-1.14-39.9-.12-3.78,1.38-5.63,4.81-7.05,12.77-5.26,25.43-10.76,38.09-16.29,1.38-.6,3.46-1.88,3.5-2.9,.28-8.72,.16-17.46,.16-26.43-6.42,0-11.91-.18-17.39,.06-4.4,.19-6.01-1.81-5.95-5.94,.09-5.64,.02-11.27,.02-17.42Zm70.19,96.77c0-6.44-.27-11.62,.09-16.76,.24-3.41-.92-5.04-4-6.32-12.29-5.09-24.45-10.49-36.73-15.6-1.5-.62-3.67-.74-5.14-.13-12.58,5.23-25.04,10.76-37.61,16.03-2.78,1.16-3.56,2.73-3.45,5.69,.27,7.15,.15,14.31,.08,21.46-.15,14.48,2.94,27.94,11.17,40.17,7.88,11.71,19.78,18.61,30.71,26.69,.67,.5,2.44,.39,3.12-.15,9.2-7.35,19.3-13.91,27.2-22.48,12.79-13.87,15.75-31.48,14.55-48.6ZM147.6,22.99c-6.06-5.75-11.37-10.8-17.13-16.27V22.99h17.13Z"/>
  <path class="cls-1" d="M63.15,60c-14.67,0-29.33-.18-43.99,.11-4.57,.09-5.95-1.9-5.96-5.82-.01-11.83,.04-23.65,0-35.48-.02-3.96,1.88-5.68,5.75-5.67,29.66,.05,59.32,.1,88.98,.06,3.83,0,5.41,1.68,5.39,5.4-.06,11.99-.1,23.99,0,35.98,.03,4.05-1.57,5.53-5.68,5.48-14.83-.18-29.66-.07-44.5-.07ZM20.22,20.25V53.18H106.21V20.25H20.22Z"/>
  <path class="cls-1" d="M52.97,140c11.5,0,23,.13,34.5-.06,4.33-.07,6.03,1.62,5.98,5.86-.13,11.66-.23,23.32-.07,34.98,.06,4.62-1.88,6.08-6.28,6.06-22-.1-44,.01-66,0-7.28,0-7.74-.44-7.79-7.52-.09-11.16-.03-22.32-.09-33.48-.02-3.92,1.08-6.07,5.75-5.94,11.32,.32,22.66,.1,34,.1Zm-32.85,39.62H86.24v-32.56H20.11v32.56Z"/>
  <path class="cls-1" d="M53.97,116.83c11.14,0,22.28,0,33.42,0,.67,0,1.49-.25,1.97,.05,1.59,1.01,3.05,2.21,4.57,3.34-1.57,1.1-3.11,3.13-4.7,3.17-12.96,.26-25.94,.13-38.91,.14-10.14,0-20.29,.27-30.42-.08-2.57-.09-7.22-2.09-7.22-3.2,.01-4.21,4.11-3.33,6.86-3.37,11.47-.15,22.95-.06,34.42-.06Z"/>
  <path class="cls-1" d="M53.71,76.81c11.48,0,22.97-.15,34.45,.14,1.96,.05,5.42,1.84,5.52,3.07,.33,3.65-3,3.56-5.69,3.56-22.8,0-45.6-.03-68.4-.04-.33,0-.73,.13-.99,0-2.18-1.17-4.33-2.38-6.48-3.58,2.21-1.03,4.4-2.9,6.64-2.96,11.64-.3,23.3-.14,34.95-.14,0-.02,0-.03,0-.05Z"/>
  <path class="cls-1" d="M53.4,96.85c11.64,0,23.28-.15,34.92,.15,1.91,.05,3.77,2.08,5.66,3.19-1.93,1.09-3.85,3.1-5.79,3.12-22.94,.22-45.89,.24-68.83,.01-2.43-.02-4.85-1.98-7.27-3.04,2.47-1.16,4.9-3.24,7.4-3.32,11.3-.36,22.61-.16,33.92-.16,0,.01,0,.03,0,.04Z"/>
  <path class="cls-1" d="M186.67,104.32c1.06,17.64-3.48,33.44-16.18,46.12-5.4,5.38-11.6,9.98-17.65,14.67-1.16,.9-3.92,1.37-4.9,.64-13.5-10.11-27.6-20.13-31.77-37.73-2.12-8.94-2.51-18.4-2.74-27.64-.32-12.76,.07-12.76,11.86-17.43,6.96-2.75,13.83-5.77,20.89-8.21,2.28-.79,5.32-.87,7.56-.04,9.83,3.6,19.48,7.72,29.25,11.5,2.76,1.07,3.85,2.7,3.72,5.64-.19,4.15-.05,8.32-.05,12.49Zm-36.61,54.58c9.31-7.33,18.83-14.16,24.49-25.1,6.62-12.81,5.41-26.47,5.28-40.05,0-.93-1.71-2.22-2.89-2.71-7.83-3.23-15.69-6.38-23.62-9.33-1.72-.64-4.02-.97-5.66-.37-8.42,3.07-16.73,6.42-25.01,9.86-1.11,.46-2.55,1.99-2.55,3.02,0,11.75-1.11,23.58,3.28,35,5.11,13.32,15.67,21.5,26.68,29.69Z"/>
</svg>