<?xml version="1.0" encoding="utf-8"?>
<!-- Generator: Adobe Illustrator 26.4.1, SVG Export Plug-In . SVG Version: 6.00 Build 0)  -->
<svg version="1.1" id="_Слой_1" xmlns="http://www.w3.org/2000/svg" xmlns:xlink="http://www.w3.org/1999/xlink" x="0px"
	 y="0px" viewBox="0 0 200 200" style="enable-background:new 0 0 200 200;" xml:space="preserve">
<style type="text/css">
	.st0{fill:#2E3192;}
</style>
<path class="st0" d="M149,200H0V0c45.3,0,90.6,0,136,0c0.7,1.2,1.2,2.7,2.2,3.7c3.7,3.8,7.4,7.7,11.4,11.1c3,2.5,3.9,5.4,3.8,9.2
	c-0.2,9.5,0,18.9-0.2,28.4c-0.1,4,1.1,6.2,5.1,7.7c11.7,4.6,23.2,9.8,34.8,14.7c2.2,0.9,4.6,1.4,6.8,2.2v49c-1,1.7-2.5,3.4-3,5.3
	c-2.8,11.4-8.3,21.5-16.7,29.4c-6.8,6.4-14.8,11.8-22.2,17.6c-1.6,1.2-4.3,2.6-4.3,3.8C154,188.6,152.2,194.5,149,200L149,200z
	 M123.1,6.8c-4,0-7.1,0-10.2,0c-33.2,0-66.3,0-99.5,0.1c-6.5,0-6.6,0.2-6.6,6.7C6.7,71.4,6.6,129.2,6.6,187c0,5.7,0.7,6.3,6.9,6.3
	c25.7,0,51.3,0,77,0c16.5,0,33,0.1,49.5,0c2,0,4.6-0.3,5.9-1.5c2.2-2.1,0.4-10.2-2.2-12.1c-4.6-3.3-9.2-6.5-13.8-9.9
	c-16.1-11.7-26.6-27.3-28.9-47.2c-1.5-13.2-0.7-26.6-1.1-39.9c-0.1-3.8,1.4-5.6,4.8-7.1c12.8-5.3,25.4-10.8,38.1-16.3
	c1.4-0.6,3.5-1.9,3.5-2.9c0.3-8.7,0.2-17.5,0.2-26.4c-6.4,0-11.9-0.2-17.4,0.1c-4.4,0.2-6-1.8-5.9-5.9
	C123.2,18.5,123.1,12.9,123.1,6.8L123.1,6.8z M193.3,103.5c0-6.4-0.3-11.6,0.1-16.8c0.2-3.4-0.9-5-4-6.3
	C177.1,75.4,165,70,152.7,64.9c-1.5-0.6-3.7-0.7-5.1-0.1c-12.6,5.2-25,10.8-37.6,16c-2.8,1.2-3.6,2.7-3.4,5.7
	c0.3,7.2,0.2,14.3,0.1,21.5c-0.2,14.5,2.9,27.9,11.2,40.2c7.9,11.7,19.8,18.6,30.7,26.7c0.7,0.5,2.4,0.4,3.1-0.1
	c9.2-7.4,19.3-13.9,27.2-22.5C191.5,138.3,194.5,120.7,193.3,103.5L193.3,103.5z M147.6,23c-6.1-5.8-11.4-10.8-17.1-16.3V23H147.6z"
	/>
<path class="st0" d="M63.2,60c-14.7,0-29.3-0.2-44,0.1c-4.6,0.1-5.9-1.9-6-5.8c0-11.8,0-23.6,0-35.5c0-4,1.9-5.7,5.8-5.7
	c29.7,0.1,59.3,0.1,89,0.1c3.8,0,5.4,1.7,5.4,5.4c-0.1,12-0.1,24,0,36c0,4-1.6,5.5-5.7,5.5C92.8,59.9,78,60,63.2,60L63.2,60z
	 M20.2,20.2v32.9h86V20.2H20.2z"/>
<path class="st0" d="M53,140c11.5,0,23,0.1,34.5-0.1c4.3-0.1,6,1.6,6,5.9c-0.1,11.7-0.2,23.3-0.1,35c0.1,4.6-1.9,6.1-6.3,6.1
	c-22-0.1-44,0-66,0c-7.3,0-7.7-0.4-7.8-7.5c-0.1-11.2,0-22.3-0.1-33.5c0-3.9,1.1-6.1,5.7-5.9C30.3,140.2,41.6,140,53,140z
	 M20.1,179.6h66.1v-32.6H20.1L20.1,179.6L20.1,179.6z"/>
<path class="st0" d="M54,116.8c11.1,0,22.3,0,33.4,0c0.7,0,1.5-0.2,2,0.1c1.6,1,3.1,2.2,4.6,3.3c-1.6,1.1-3.1,3.1-4.7,3.2
	c-13,0.3-25.9,0.1-38.9,0.1c-10.1,0-20.3,0.3-30.4-0.1c-2.6-0.1-7.2-2.1-7.2-3.2c0-4.2,4.1-3.3,6.9-3.4
	C31,116.7,42.5,116.8,54,116.8L54,116.8z"/>
<path class="st0" d="M53.7,76.8c11.5,0,23-0.2,34.5,0.1c2,0.1,5.4,1.8,5.5,3.1c0.3,3.7-3,3.6-5.7,3.6c-22.8,0-45.6,0-68.4,0
	c-0.3,0-0.7,0.1-1,0c-2.2-1.2-4.3-2.4-6.5-3.6c2.2-1,4.4-2.9,6.6-3C30.4,76.7,42.1,76.9,53.7,76.8C53.7,76.8,53.7,76.8,53.7,76.8z"
	/>
<path class="st0" d="M53.4,96.8c11.6,0,23.3-0.2,34.9,0.2c1.9,0.1,3.8,2.1,5.7,3.2c-1.9,1.1-3.8,3.1-5.8,3.1
	c-22.9,0.2-45.9,0.2-68.8,0c-2.4,0-4.9-2-7.3-3c2.5-1.2,4.9-3.2,7.4-3.3C30.8,96.6,42.1,96.8,53.4,96.8
	C53.4,96.8,53.4,96.8,53.4,96.8L53.4,96.8z"/>
<path class="st0" d="M186.7,104.3c1.1,17.6-3.5,33.4-16.2,46.1c-5.4,5.4-11.6,10-17.6,14.7c-1.2,0.9-3.9,1.4-4.9,0.6
	c-13.5-10.1-27.6-20.1-31.8-37.7c-2.1-8.9-2.5-18.4-2.7-27.6c-0.3-12.8,0.1-12.8,11.9-17.4c7-2.8,13.8-5.8,20.9-8.2
	c2.3-0.8,5.3-0.9,7.6,0c9.8,3.6,19.5,7.7,29.2,11.5c2.8,1.1,3.9,2.7,3.7,5.6C186.5,96,186.7,100.2,186.7,104.3L186.7,104.3z
	 M150.1,158.9c9.3-7.3,18.8-14.2,24.5-25.1c6.6-12.8,5.4-26.5,5.3-40.1c0-0.9-1.7-2.2-2.9-2.7c-7.8-3.2-15.7-6.4-23.6-9.3
	c-1.7-0.6-4-1-5.7-0.4c-8.4,3.1-16.7,6.4-25,9.9c-1.1,0.5-2.6,2-2.6,3c0,11.8-1.1,23.6,3.3,35C128.5,142.5,139.1,150.7,150.1,158.9
	L150.1,158.9z"/>
</svg>
