<?xml version="1.0" encoding="UTF-8"?>
<svg id="_Слой_1" data-name="Слой 1" xmlns="http://www.w3.org/2000/svg" viewBox="0 0 59.35 59.35">
  <defs>
    <style>
      .cls-1 {
        fill: #2e3192;
      }
    </style>
  </defs>
  <path class="cls-1" d="M35.32,59.35h-5.64c.32-4.39-1.28-4.49-4.18-1.51-.88-1.48-2.04-2.5-3.26-3.64-.43-.36-1.12-.4-1.7-.58-.72,1.82-.29,3.81-.36,5.73H3.86c0-7.49-.06-14.99,.05-22.48,.02-1.24,.4-2.92,1.24-3.6,1.54-1.23,1.53-2.6,1.61-4.24,.06-1.33-.4-2.09-1.48-2.76-2.26-1.42-4.07-3.26-4.8-5.96C.41,20.05,.16,19.83,0,19.59c0-3.66,0-7.32,0-10.98,.19-.39,.44-.77,.57-1.18C1.65,3.98,3.84,1.66,7.3,.57,7.66,.46,7.98,.19,8.31,0c1.38,0,2.77,0,4.15,0,.16,.12,.3,.29,.48,.34,4.3,1.23,6.88,4.04,7.81,8.42,.07,.35,.48,.71,.82,.91,1.35,.78,1.8,2.09,1.31,4.12-.38,1.81-2.15,1.39-3.45,1.66,.55,2.33,1.06,4.52,1.59,6.71,.29,1.17-.17,1.81-1.32,1.95-1.24,.15-1.64,.8-1.57,2.02,.11,1.97-.73,3.47-2.67,4.13-.87,.3-1.11,.79-.71,1.55,.55,1.04,1.1,2.1,1.79,3.05,1.54,2.11,2.6,4.41,3.08,6.98,.43,2.28,.44,2.31,2.72,2.09,.46-.04,1.17-.36,1.26-.69,.13-.47-.04-1.2-.36-1.59-.42-.51-1.11-.79-1.52-1.06,1.6-1.7,2.83-3.01,4.13-4.4,.79,.84,1.87,1.97,3.07,1.77,.84-.37,.86-2.44,.78-3.09,.84-.5,1.84-.79,1.88-1.18,.19-1.59,.08-3.21,.08-4.97h-6.74c0-3.69-.02-7.24,.04-10.78,.64-1.2,2.58-.63,3.79-.74,0-1.3,0-2.33,0-3.36,.01-1.32,.1-2.52-1.23-3.53-1.18-.89-.86-2.67,.31-3.82,.89-.87,2.85-1.14,3.48-.16,1.04,1.61,2.47,1.32,3.91,1.33,1.24,.01,2.48-.08,3.7,.03,1.11,.1,1.35-.38,1.34-1.36,0-2.12,.08-4.24,.13-6.36h17.21c-.02,4.68-.08,9.35-.04,14.03,0,.99-.29,1.29-1.22,1.34-2.81,.14-2.82,.17-2.66,3.06,.01,.19,.07,.38,.16,.86h5.53v13.35h-3.84c0,3.32,.02,6.48-.01,9.63-.01,1.07,.09,1.93,1.05,2.71,1.23,1,1.13,2.89,0,3.94-1.21,1.14-2.98,1.06-4.1-.16-.29-.32-.62-.84-.94-.86-2.14-.08-4.28-.04-6.39-.04q-.22,1.89-1.87,1.92c-.34,0-.71-.01-1.03,.09-.91,.28-1.2,1.25-.63,2.01,.49,.65,1.48,1.37,1.39,1.91-.19,.87-1.46,1.59-2.1,2.36-1.45,1.54-1.41,1.5-3,.15-2.48-1.67-2.64,1.21-2.57,3.04Zm1.07-30.65c-.57,.03-.93,.11-1.25,.04-1.25-.28-1.72,.19-1.64,1.46,.2,1.21-.56,3.44,.64,4.16,1.42,.03,1.4,.76,1.27,1.87-.07,.55,.32,1.48,.75,1.67,.45,.2,1.21-.26,1.81-.48,.16-.06,.27-.28,.39-.43,1.38-1.75,2.31,.83,3.45,1.61,1.52,1.45,1.5,1.42,.11,3-.34,.38-.62,1.12-.48,1.53,.13,.38,.87,.78,1.34,.78,1.38,0,2.66-.05,2.19,2.07,1.93,0,3.7,0,5.47,0,1.71,0,3.22-1.53,3.22-3.24,0-2.92-.08-5.84,.01-8.75,.04-1.23-.38-1.53-1.51-1.5-2.01,.07-4.03,.02-6.13,.02v-13.35h5.62c0-.92-.06-1.65,.01-2.37,.12-1.07-.18-1.5-1.36-1.46-2.67,.08-5.34,0-8.01,0-2.1,0-2.09,.02-2.05-2,.02-.84-.07-1.69,.03-2.51,.14-1.04-.35-1.31-1.25-1.31-2.87,.05-7.06-.97-8.29,2.46-.42,1.61-.11,3.4-.11,5.08,2.84,.46,5.4,.56,6.88-2.47,.65,.56,1.08,.93,1.7,1.46-2.59,1.62-3.1,3.81-2.87,6.41,.18,2.05,.04,4.12,.04,6.23Zm-12.38,17.27c-5.44,.12-10.63,.54-11.87-5.97-.5-2.44-.41-6.98-3.96-6.41-1.69,.29-2.58,1.52-2.36,3.33,.23,1.91,.48,3.82,.81,5.71,.63,3.71,2.61,6.45,6.04,8.05,3.43,1.61,7.09,.8,10.66,.92,.22,0,.64-.48,.65-.76,.06-1.56,.03-3.13,.03-4.88ZM42.12,13.4c4.33,0,8.41,.02,12.5-.04,.3,0,.84-.54,.84-.83,.06-3.26,.06-6.51,0-9.77,0-.31-.53-.86-.82-.86-3.85-.05-7.7-.04-11.54,.02-.33,0-.93,.49-.94,.76-.06,3.49-.04,6.99-.04,10.72Zm-25.98,13.4c-1.77,.19-3.08-.54-4.57-1.28-.32-.19-.3-.97-.44-1.48,.57,.02,1.14,0,1.7,.08,1.47,1.29,3.3,1.25,3.65-.95,1.64-.53,3.16-.52,2.4-2.69-.49-1.39-.95-2.81-1.61-4.12-.24-.48-1-.92-1.56-.97-1.47-.13-2.96-.06-4.44-.04-2.73-.07-2.62,1.24-2.73,3.6-2.17,.58-2.25,.98-.88,2.7,.51,.64,.86,1.57,.9,2.38,.12,2.12,.03,4.25,.03,6.37,0,.74,.12,1.2,1.07,1.42,1.32,.41,2.53,1.54,3.67,2.37,.09-.1,.18-.21,.27-.31-.25-.52-.69-1.02-.72-1.55-.08-1.44-.75-2.02-2.12-1.79-.49-1.66-.37-1.83,1.19-1.83,1.72,.03,3.58,.34,4.18-1.93Zm15.74,9.44c-.62,2.99-2.24,4.9-5.64,3.08-.88-.45-1.53-.4-1.52,.64,.01,2.15,1.61,2.97,3.51,1.89,5.22-4.39,13,.97,10.56,7.44-1.7,4.19-6.52,5.6-10.19,2.98-2.41-1.79-3.19,.35-3.8,2.23,.76-.13,1.56-.13,2.26-.41,1.99-.78,3.99,.2,4.48,2.23,.1,.43,.42,1.07,.74,1.13,.73,.15,1.13-.25,1.34-1.11,.58-2.4,2.65-3.21,4.8-2.09,.45,.24,1.06,.17,1.59,.24-.03-.57,.09-1.21-.13-1.69-1.02-2.19-.32-4.06,1.98-4.78,1.05-.33,1.48-.86,1.25-1.43-2.85-1.56-4.93-2.72-3.04-5.93,.19-.33,.11-.95-.1-1.29-.11-.19-.81-.21-1.13-.06-3.07,1.42-4.71,.64-5.48-2.74-.44-.1-.91-.2-1.5-.34Zm15.93-15.11c0,2.92-.04,5.64,.04,8.35,.01,.39,.57,1.1,.89,1.11,2.61,.08,5.23,.05,7.85,0,.3,0,.85-.33,.85-.53,.06-1.97,.04-3.94,.04-5.91-.12-.04-.24-.07-.35-.11-1.43,1.66-2.87,3.32-4.46,5.17-.82-.99-1.57-1.89-2.38-2.88,.32-.26,.8-.65,1.26-1.03,.45,.36,.78,.63,1.18,.95,1.4-1.68,2.76-3.31,4.28-5.13h-9.2ZM18.14,57.35c0-.75-.09-1.44,.02-2.1,.21-1.32-.3-1.66-1.59-1.71-4.3-.16-7.62-2.14-9.98-5.74-.21-.32-.47-.62-.87-1.14,.09,3.82-.17,7.23,.1,10.7h12.33Zm-.78-51.76C13.9,.8,7.07,.77,3.5,5.56c1.96,.26,2.32,1.57,2.26,3.23,0,.25,.71,.69,1.12,.73,.25,.02,.76-.54,.8-.88,.23-1.74-.69-4.74,1.97-4.78,4.49-.33,3.57,1.32,3.77,4.76,.06,.37,.61,.94,.91,.92,.35-.02,.96-.58,.96-.9-.02-1.49,.35-2.64,2.08-3.05Zm9.41,21.26c2.49,0,4.75,.02,7.01-.03,.25,0,.68-.46,.69-.72,.07-1.5,.03-3.01,.03-4.51-.13-.05-.25-.09-.38-.14-1.14,1.28-2.29,2.55-3.44,3.83-.76-.71-1.45-1.21-1.95-1.86-.25-.33-.17-.92-.25-1.39,.38-.04,.75-.07,1.13-.11,.54-.05,1.24,.11,1.59-.17,.81-.65,1.45-1.51,2.42-2.58-2.29,0-4.2-.03-6.11,.03-.26,0-.71,.45-.72,.7-.06,2.25-.03,4.51-.03,6.95ZM2.14,13.41c6.01,0,11.99,0,17.97,.01,1.59,.05,1.01-1.8-.07-1.92-5.58-.04-11.17,.02-16.76-.02-1.39,0-1.64,.53-1.14,1.93ZM29.2,49.81c1.2,.02,2.93,.23,3.89-1.5,.28-.5,.41-1.29,.21-1.77-.14-.34-.97-.46-1.51-.54-.63-.09-1.29,.06-1.91-.06-.76-.09-2.01-1.58-2.42-1.68-.62,.45-1.15,1.06-1.61,1.7-.16,.23-.01,.67-.01,1.01q.03,2.83,3.36,2.84ZM7.06,24.14c-1.66-2.13-3.45-3.98-1.06-6.35,.48-.51,.62-1.33,.91-2.01-.58-.13-1.16-.37-1.74-.38-3.43-.02-3.72,.37-3.03,3.81,.49,2.45,2.63,4.89,4.92,4.94Zm25.42,27.46c.06,.09,.11,.18,.17,.28,3.08-.59,5.42-3.08,4.48-6.34-.65-2.28-3.03-3.8-5.4-3.29-.66,.14-1.21,.78-1.8,1.19,1.79,.9,4.35,.07,5.21,2.37,1.01,2.45-.87,4.38-2.66,5.79Zm-14.63-7.96c.2-3.29-2.07-7.41-4.04-7.34-.56,3.48,1.39,7.83,4.04,7.34ZM11.55,9.36c0-.52,.05-.97-.01-1.4-.12-.86,.54-2.27-1-2.26-1.52,.02-.96,1.42-.99,2.29-.06,1.7,.16,1.84,2,1.36Zm-9.36,.06c.77,.19,1.54,.37,1.67-.71,.04-.34-.43-1.08-.62-1.06-1,.08-1.19,.81-1.05,1.77Zm28.82-.93c-.66-.35-1.05-.72-1.42-.7-.3,.02-.57,.51-.86,.79,1.06,1.23,.99,1,2.28-.1Zm23.67,39.71c.37-.63,.78-1.02,.75-1.36-.02-.29-.63-.82-.82-.76-.37,.11-.84,.55-.89,.91-.04,.29,.49,.65,.96,1.22ZM19.21,8.74c-.59-.47-.96-.76-1.33-1.06-.23,.31-.69,.66-.64,.91,.07,.37,.46,.78,.81,.93,.18,.08,.58-.38,1.15-.78Z"/>
  <path class="cls-1" d="M46.95,9.01c1.63-1.9,3.19-3.73,4.74-5.55,1.61,.45,1.79,.85,.81,2.03-1.6,1.94-3.27,3.81-4.89,5.74-.53,.63-.94,.56-1.43-.02-.32-.37-.82-.65-1-1.06-.21-.49-.16-1.1-.23-1.65,.74,.16,1.32,.06,1.99,.52Z"/>
</svg>