<?xml version="1.0" encoding="UTF-8"?>
<svg id="_Слой_1" data-name="Слой 1" xmlns="http://www.w3.org/2000/svg" viewBox="0 0 200 200">
  <defs>
    <style>
      .cls-1 {
        fill: #2e3192;
      }
    </style>
  </defs>
  <path class="cls-1" d="M161,200H94c-1.64-1.91-3.43-3.71-4.89-5.75-3.09-4.35-2.72-8.98-1.02-13.8,.46-1.32,.31-3.23-.37-4.41-.31-.55-2.73-.4-3.87,.13-2.85,1.34-5.67,2.85-8.2,4.71-3.76,2.75-7.11,2.34-11.03,.15-28.54-16.01-48.25-39.36-58.39-70.47C3.44,101.93,2.04,92.86,0,84c0-21,0-42,0-63C18.36,15.43,36.74,9.89,55.08,4.26,59.11,3.02,63.03,1.43,67,0c2,0,4,0,6,0,1.09,.63,2.1,1.51,3.27,1.86,19.24,5.76,38.47,11.59,57.8,17.05,4.75,1.34,6.16,3.61,6.05,8.41-.32,13.8-.22,27.6,.01,41.4,.03,1.9,1.3,4.98,2.7,5.46,7.95,2.76,10.86,8.7,10.44,16.26-.4,7.29,1.47,13.83,4.69,20.08,.95,1.83,2.74,3.75,4.6,4.49,8.18,3.26,16.5,5.85,25.59,5.09,3.9-.33,7.89,.56,11.85,.89v65c-12.74,.66-25.97-.53-36.15,9.7-.56,.56-1.71,.66-2.08,1.27-.51,.86-.54,2-.77,3.02Zm-33.97-6.71s0-.04,0-.05c4.17,0,8.39-.46,12.48,.09,11.64,1.57,21.45-1.94,30.35-9.34,2.42-2.01,3.63-3.71,3.59-6.92-.17-15.33-.27-30.66,.07-45.98,.1-4.41-1.39-6.26-5.44-7.14-3.23-.7-6.6-1.53-9.42-3.16-2.5-1.44-5.03-3.7-6.32-6.22-4.19-8.22-6.61-16.88-5.96-26.39,.34-4.96-3.55-8.12-8.22-8.13-4.37,0-7.66,3.6-8.1,8.45-.68,7.51,.96,14.46,4,21.31,4.26,9.58,3.71,10.2-6.8,10.2-12,0-24-.09-35.99,.05-6.49,.08-10.05,4.91-6.87,9.68,1.33,1.99,5.01,2.36,7.53,3.65,1.55,.79,2.92,1.94,4.37,2.93-1.16,1.26-2.24,2.6-3.49,3.77-1.91,1.8-4.96,3.14-5.67,5.28-1.39,4.22,1.55,6.99,6.49,7.96,2.19,.43,4.18,1.86,6.26,2.83-1.7,1.44-3.19,3.31-5.13,4.23-4.55,2.17-6.4,6.53-3.27,10.05,1.44,1.63,4.35,1.89,6.49,2.98,1.65,.84,3.14,2,4.7,3.02-1.26,1.21-2.32,2.84-3.81,3.54-3.5,1.64-6.01,3.63-5.16,7.95,.91,4.67,4.44,5.35,8.33,5.36,8.33,.03,16.66,0,24.99,0ZM31.61,98.34c6.95,19.46,19.6,33.37,36.87,42.95,1.93,1.07,6.63-2.27,9.66-4.16,.72-.45,.37-3.51-.25-5.07-2.54-6.37-.93-13.44,5.29-16.31,4.14-1.92,9.27-1.68,13.93-2.53,1.67-.3,4.14-.42,4.8-1.5,6.96-11.42,10.97-23.76,11.08-37.78-27.32,8.19-54.18,16.25-81.39,24.41ZM6.64,72.04c3.72-1.07,6.52-2.2,9.42-2.63,3.49-.51,4.08-2.38,4-5.49-.19-7.32,.02-14.66-.1-21.99-.05-3.16,1.29-4.88,4.21-5.9,14.13-4.94,28.2-10.08,42.37-14.9,2.17-.74,4.94-.74,7.17-.14,13.16,3.55,26.29,7.26,39.34,11.21,3.09,.93,5.83,2.99,8.73,4.54,1.97,.44,4.31-.35,6.7-.99,3.09-.83,5.09-1.89,5.02-5.96-.06-3.94-2.23-4.73-5-5.56-15.78-4.7-31.68-9.04-47.29-14.24-7.8-2.6-14.86-2.52-22.63,.07-15.3,5.09-30.86,9.42-46.35,13.94-3.89,1.13-5.99,2.49-5.74,7.41,.57,10.96,.15,21.98,.14,32.97,0,2.28,0,4.55,0,7.64Zm72.01,73.07c-1.49,.96-3.15,2.58-5.11,3.14-2.14,.61-5.2,1.18-6.76,.14-7.02-4.71-14.03-9.59-20.35-15.18-9.89-8.74-16.45-19.94-21.33-32.73-4.61,1.35-8.99,2.64-13.15,3.86-.17,.84-.3,1.16-.28,1.47,.04,.49,.15,.99,.3,1.46,9.41,28.49,26.84,50.61,52.64,66.03,6.07,3.63,17.36-1.07,19.12-7.89,.66-2.53,1.31-5.07,1.63-6.31-2.45-5.09-4.47-9.3-6.72-13.99ZM113.69,40.06c-1.28-.72-1.74-1.11-2.28-1.27-13.09-3.83-26.17-7.66-39.29-11.38-1.18-.33-2.67-.23-3.84,.18-13.02,4.58-26.02,9.22-38.98,13.96-1.08,.4-2.66,1.55-2.69,2.39-.21,7.21-.12,14.43-.12,22.3,29.55-8.87,57.97-17.4,87.2-26.18Zm79.71,86.65c-3.31,0-6.12,.27-8.87-.07-3.58-.43-4.63,.86-4.59,4.38,.15,15.16,.06,30.33,.09,45.49,0,1.1,.29,2.19,.48,3.48,3.44,0,6.6-.08,9.76,.02,2.52,.08,3.44-.74,3.39-3.49-.23-11.99-.2-23.98-.25-35.97-.02-4.45,0-8.9,0-13.85ZM27.62,78.76c.86-.1,1.7-.07,2.47-.3,26.76-8.03,53.51-16.14,80.3-24.09,4.1-1.22,3.65-3.47,2.27-6.64-1.46,.3-2.93,.47-4.32,.89-25.81,7.74-51.59,15.58-77.43,23.19-4.14,1.22-5.02,3.14-3.29,6.96Zm84.87-18c-2.01,.59-3.76,1.09-5.5,1.61-24.7,7.42-49.36,14.95-74.13,22.14-4.21,1.22-5.02,2.99-3.37,6.86,.81-.09,1.64-.05,2.39-.27,26.15-7.77,52.3-15.56,78.45-23.35,3.62-1.08,4.12-3.36,2.17-6.99Zm14.13,52.32c-1.22-8.15-2.67-15.75-3.4-23.41-.5-5.25,1.89-9.7,6.07-13.05,2.23-1.79,6.12-3.07,3.89-6.69-.63-1.03-4.59-.14-7.01,.08-4.65,.42-6.62,2.75-6.74,7.73-.27,11.64-3.63,22.59-9.12,32.87-.34,.64-.32,1.48-.52,2.47h16.82Zm6.45-71.04c-10.89,.58-13.76,2.64-12.35,8.68,9.53-.74,12.91-3.02,12.35-8.68Zm.25,13.27c-10.79,.67-13.97,2.91-12.48,9.25,2.68-.83,5.28-2.12,7.97-2.36,4.87-.43,4.72-3.42,4.51-6.88ZM7.41,85.24c3.49-1.05,6.12-2.11,8.85-2.6,4.71-.84,4.69-3.45,3.22-7.26-4.21,1.24-8.16,2.41-12.39,3.66,.1,1.94,.19,3.72,.32,6.2Zm13.98,1.6c-.69,.65-1.37,1.3-2.06,1.95-2.87,.82-5.91,1.29-8.52,2.61-1.09,.55-1.28,2.89-1.88,4.42,1.25,.38,2.6,1.26,3.73,1.04,2.74-.53,5.48-1.37,8.02-2.53,.93-.43,1.75-2.08,1.81-3.21,.07-1.4-.7-2.85-1.11-4.28Z"/>
  <path class="cls-1" d="M171.98,82.43c-1.41,.36-2.9,1.2-4.2,.96-1.67-.31-4.41-1.3-4.57-2.32-1.18-7.66-5.19-13.03-11.68-17.01-1.14-.7-1.42-2.82-2.1-4.29,1.89-.42,4.29-1.81,5.58-1.12,8.56,4.63,13.51,11.98,14.85,21.69,.71,.69,1.42,1.38,2.13,2.08Z"/>
  <path class="cls-1" d="M153.24,28.6c1.74,2.18,3.61,3.59,3.39,4.47-.38,1.52-2.06,2.72-3.2,4.05-1.3-1.4-2.96-2.64-3.72-4.3-.26-.56,1.74-2.16,3.52-4.22Z"/>
  <path class="cls-1" d="M164.77,33.75c2.02,2.41,4.35,4.16,4.06,5.06-.54,1.66-2.61,2.83-4.05,4.2-.96-1.35-2.54-2.64-2.69-4.08-.13-1.28,1.32-2.73,2.68-5.19Z"/>
  <path class="cls-1" d="M192.63,95.64c-1.36,1.72-2.71,3.44-4.07,5.15-1.27-1.6-2.54-3.21-3.81-4.81,2-.96,4-1.92,6.01-2.88l1.88,2.54Z"/>
  <path class="cls-1" d="M183.09,63.54c-1.73-2.46-3.72-4.31-3.38-5.01,.76-1.55,2.56-2.84,4.23-3.53,.53-.22,3,2.08,2.82,2.75-.47,1.73-1.92,3.2-3.67,5.79Z"/>
  <path class="cls-1" d="M190.24,88.58c-1.88-2.05-4.12-3.51-3.95-4.58,.22-1.38,2.38-3.41,3.68-3.4,1.32,.01,3.17,1.98,3.71,3.48,.28,.78-1.76,2.39-3.44,4.49Z"/>
  <path class="cls-1" d="M175.55,42.49c1.52,2.39,3.2,3.9,3.19,5.39,0,1.1-2.48,3.22-3.44,3.01-1.41-.32-3.2-2.21-3.38-3.61-.15-1.14,1.84-2.56,3.63-4.79Z"/>
  <path class="cls-1" d="M191.36,67.42c-.34,2.11-.43,4.32-1.21,6.25-.19,.46-3.02,.48-4.02-.2-.93-.64-1.79-3.22-1.35-3.66,1.4-1.45,3.41-2.31,5.18-3.4,.47,.34,.93,.68,1.4,1.02Z"/>
  <path class="cls-1" d="M182.37,104.98c1.66,1.32,3.33,2.64,4.99,3.97-.55,.68-1.48,2.02-1.6,1.95-1.82-1.05-3.53-2.28-5.26-3.48l1.87-2.44Z"/>
</svg>