<?xml version="1.0" encoding="utf-8"?>
<!-- Generator: Adobe Illustrator 26.4.1, SVG Export Plug-In . SVG Version: 6.00 Build 0)  -->
<svg version="1.1" id="_Слой_2" xmlns="http://www.w3.org/2000/svg" xmlns:xlink="http://www.w3.org/1999/xlink" x="0px"
	 y="0px" viewBox="0 0 1247.2 294.3" style="enable-background:new 0 0 1247.2 294.3;" xml:space="preserve">
<style type="text/css">
	.st0{fill:#FFFFFF;}
</style>
<g id="_Слой_1-2">
	<path class="st0" d="M1247.2,144.7c-0.7,1.2-1.4,2.3-1.9,3.6c-5.3,12.5-14.7,19.8-28.3,20c-19.8,0.4-39.7,0.1-59.5,0.2
		c-3.2,0-4.3-1.2-4.3-4.4c0.1-29,0.1-58.1,0-87.1c0-3.5,1.4-4.7,4.7-4.5c3.4,0.2,6.8,0.2,10.2,0c3.5-0.2,4.6,1.4,4.5,4.7
		c-0.1,7.5-0.1,15.1-0.1,22.6c0,4.6,2.2,6.9,6.7,6.9c11.7,0,23.4,0,35.1,0c15.2,0,25.4,6.9,31.4,21c0.3,0.8,1,1.5,1.6,2.2
		L1247.2,144.7L1247.2,144.7z M1196.4,124.8c-6.6,0-13.2,0.1-19.8,0c-2.8,0-4.3,0.9-4.2,3.9c0.1,5.8,0.1,11.6,0,17.5
		c-0.1,3.5,1.6,4.6,4.8,4.4c4-0.1,8,0,12,0c8.6,0,17.2,0.2,25.8-0.1c7.8-0.3,13.4-6.2,13.1-13.2c-0.3-7.3-5.9-12.4-13.7-12.5
		C1208.4,124.7,1202.4,124.8,1196.4,124.8L1196.4,124.8z"/>
	<path class="st0" d="M911.3,267.1c-0.1-3.6-0.3-7.1-0.2-10.7c0-1.1,0.7-3.1,1.4-3.2c4.9-0.9,5-5.2,6.4-8.4c3.4-8.3,6.7-16.6,9.7-25
		c1.1-3,2.9-3.4,5.6-3.5c2.8-0.1,4.5,0.6,5.6,3.4c3.5,9.1,7.1,18.2,10.7,27.2c1.1,2.7,1.7,5.6,5.4,6.2c0.8,0.1,1.8,1.9,1.8,2.9
		c0.1,3.7-0.2,7.4-0.4,11.2h-7.8c0.1-4.3-2.1-6.4-6.5-6.4c-5.9,0-11.7,0-17.6,0c-4.3,0-6.4,2.1-6.3,6.4H911.3L911.3,267.1z
		 M935.1,230c-0.6,0.1-1.1,0.2-1.7,0.3c-2.5,6.3-5,12.6-7.3,19c-0.3,0.8,1.2,3.1,1.9,3.1c4.8,0.3,9.7,0.1,15.8,0.1
		C940.7,244.3,937.9,237.2,935.1,230L935.1,230z"/>
	<path class="st0" d="M0,294.3c0-7.8,0-15.1,0-22.4c0-11.2,0.1-10.9,10.2-15.4c11.8-5.3,23.2-5,34.6,1c9.2,4.8,18.8,8.2,29.3,7.8
		c4.1-0.1,8.2-1,12.2-1.6c2.4-0.4,3.5-1.8,3.4-4.4c-0.2-4.3-0.1-8.6-0.1-13.3c-1.6,0.3-2.6,0.2-3.4,0.6c-9.7,4.8-19,3.1-28.5-0.9
		c-8.5-3.6-16.8-7.7-26.2-8.6c-10-0.9-19.4,1.1-28.4,5.1c-0.7,0.3-1.4,0.6-2.1,0.8c-0.1,0-0.2-0.1-0.9-0.3c0-4.7,0-9.6,0-14.6
		c0-0.5,0.5-1.1,1-1.4c9.8-4.7,19.7-9.9,31-7.5c5.2,1.1,10.2,3.2,15,5.5c12.5,6,25.2,8.5,38.9,5.1c2.7-0.7,3.8-1.8,3.7-4.5
		c-0.2-3.6-0.1-7.2,0-10.9c0-2.2-0.8-3.2-2.9-2.1c-10.4,5.6-20.5,3.2-30.6-1.2c-6.3-2.7-12.7-5.2-19.3-7
		c-11.3-3.1-22.3-0.8-32.8,3.8c-0.8,0.4-1.6,0.7-2.4,1c-0.3,0.1-0.7,0-1.6,0c0-1.4,0-2.7,0-4c0-59,0-118,0-177
		c0-2.9,0.3-4.4,3.9-5.2c32-7.2,63.9-14.7,95.9-22.2c3.8-0.9,5.8,0.7,5.8,4.8c0,94.4,0,188.8,0,283.3c0,3.7-1.8,5.5-5.5,5.5
		c-31.7,0-63.4,0.1-95.2,0.1C3.4,294.4,1.9,294.4,0,294.3L0,294.3z"/>
	<path class="st0" d="M763.6,73.9c0.3-0.6,0.6-0.9,0.6-1.3c1-7.8,1-7.9,9.1-7.8c9.8,0.1,9.1-1.4,9.1,9.1c0,39.3-0.1,78.7,0.1,118.1
		c0,4.7-1.3,6.1-6,6c-12.2-0.3-12.2-0.1-12.2-12.2c0-8,0-16,0-24c0-1.5-0.1-2.9-0.3-5.1c-29.9,18.9-57,17.6-79.2-10.4
		c-13.8-17.4-14.1-43.1-0.8-60.4C706.3,56.7,733.7,55.6,763.6,73.9L763.6,73.9z M692.8,115.2c0,20,15.7,35.9,35.5,36
		c19.9,0,36-15.9,36-35.6c0-19.7-16.1-35.9-35.8-35.8C708.9,79.8,692.9,95.7,692.8,115.2L692.8,115.2z"/>
	<path class="st0" d="M1052,74.3c14.4-11.5,30.7-14.8,48.3-10.5c11.4,2.8,20.9,9,28.1,18.3c15.3,19.8,15.7,46.2,1,65.5
		c-9.3,12.2-21.8,19.3-37,21.1c-15.1,1.8-28.4-3-41.2-12.6c-0.2,2.6-0.4,4.2-0.5,5.8c0,10.3-0.2,20.6,0.1,30.9c0.1,3.9-1.4,5-5.1,5
		c-13.1,0.1-13.1,0.2-13.1-12.6c0-38.1,0-76.2,0-114.4c0-4.1,2-6.2,6-6.2c0.2,0,0.3,0,0.5,0c3.2,0.1,7.1-0.9,9.5,0.5
		C1050.5,66.5,1050.7,70.6,1052,74.3L1052,74.3z M1086.4,151.2c19.9,0,35.8-15.9,35.7-35.7c-0.1-19.6-15.9-35.5-35.4-35.7
		c-19.7-0.1-36,15.9-36,35.6C1050.8,135.3,1066.6,151.2,1086.4,151.2z"/>
	<path class="st0" d="M441.2,120.3c0-14.1,0.1-28.3-0.1-42.4c0-3.9,1.1-5.7,5.2-5.4c3.2,0.3,6.5,0.2,9.7,0c3.3-0.2,4.3,1.3,4.2,4.4
		c-0.1,8.4,0,16.9-0.1,25.4c-0.1,3.3,1,4.6,4.5,4.6c12.8-0.2,25.5,0,38.3-0.1c6.4,0,11.7-4.6,12.7-10.6c1.1-6.6-2.6-13.1-9.1-14.6
		c-3.7-0.9-4.2-2.7-4.1-5.8c0.1-2.6,0.2-5.2,0-7.8c-0.4-4.2,1.3-5.3,5.4-4.8c23.2,2.9,35.1,29.9,21.2,48.8c-2.2,3-2.3,4.8,0,7.8
		c13.8,18.1,2.2,45.8-20.4,48.3c-10,1.1-20.3,0.5-30.4,0.6c-10.6,0.1-21.2-0.1-31.9,0.1c-4.1,0.1-5.3-1.4-5.2-5.4
		C441.3,148.9,441.2,134.6,441.2,120.3L441.2,120.3z M483.9,124.8c-6.6,0-13.2,0-19.8,0c-2.3,0-3.9,0.4-3.9,3.2
		c0.1,6.4-0.1,12.9,0.2,19.3c0.1,1.2,2,3.2,3.2,3.2c13.2,0.2,26.4,0.3,39.6,0c7.8-0.2,12.9-6.1,12.6-13.6c-0.3-7.1-5.7-12-13.5-12.1
		C496.2,124.7,490,124.8,483.9,124.8L483.9,124.8z"/>
	<path class="st0" d="M811.9,110.1c0-14.3,0.1-28.6-0.1-42.9c0-3.5,1-4.9,4.7-4.9c19.7,0.1,39.4,0,59.1,0.1
		c12.4,0.1,21.5,6.2,27,17.1c5.5,10.9,4.4,21.8-2.8,31.8c-2,2.8-2.3,4.5-0.1,7.4c14,18.4,2.6,45.6-20.3,48.8c-5.5,0.8-6,0.3-6-5.4
		c0-1.8,0.1-3.7,0-5.5c-0.3-4.1,0.2-6.8,5.2-7.9c5.5-1.2,8.8-7.8,8.1-13.5c-0.8-6.1-5.8-11.1-12.2-11.2c-13.2-0.2-26.5,0-39.7-0.1
		c-3.1,0-3.5,1.7-3.5,4.1c0,8.6-0.1,17.2,0.1,25.8c0.1,3.4-1.2,4.7-4.6,4.5c-3.4-0.2-6.8-0.2-10.2,0c-3.7,0.2-4.8-1.4-4.8-4.9
		C812,139,811.9,124.6,811.9,110.1L811.9,110.1z M854.5,80.1c-6.3,0-12.6,0.1-18.9-0.1c-3.2-0.1-4.5,1.1-4.4,4.3
		c0.1,5.7,0.2,11.4,0,17c-0.1,3.6,1.2,4.8,4.8,4.8c12.1-0.2,24.3,0,36.4-0.1c8.5,0,14.2-5.2,14.3-12.9c0-7.6-5.7-12.8-14.3-13
		C866.5,80,860.5,80.1,854.5,80.1L854.5,80.1z"/>
	<path class="st0" d="M333.2,167.9c-6.5,0-12,0.1-17.5-0.1c-1.2-0.1-2.6-1.4-3.3-2.6c-1.9-3.3-3.5-6.7-5.4-10.5
		c-3.6,2.4-6.6,4.7-9.8,6.6c-29.4,17.6-67.4,3.7-78.5-28.8c-9.3-27.3,5.8-58.1,33.2-67.7c27.4-9.6,57.7,4.6,68,31.8
		c4.4,11.8,4.6,23.6,0.8,35.7c-0.8,2.5-0.6,5.8,0.4,8.2c3.2,7.8,7,15.4,10.5,23C332.1,164.7,332.4,165.8,333.2,167.9L333.2,167.9z
		 M305.2,115.7c0-19.9-15.8-35.9-35.5-35.9c-19.6,0-35.6,15.9-35.8,35.4c-0.2,19.8,15.8,36,35.5,36
		C289.5,151.2,305.2,135.7,305.2,115.7z"/>
	<path class="st0" d="M663.8,167.9c-6.8,0-12.6,0.1-18.4-0.1c-1.1-0.1-2.3-1.8-3-3c-1.8-3.2-3.3-6.5-4.7-9.2
		c-7.4,3.8-14,8.2-21.2,10.7c-34.8,12.1-71.6-15.6-70.1-52.5c1.1-26.2,21.1-48.3,45.8-51.3c30.2-3.6,53.4,15.5,59.6,39.7
		c2.5,9.7,2.5,19.5-0.9,29.1c-1.3,3.7-1.2,6.9,0.6,10.5C655.8,150.1,659.5,158.5,663.8,167.9L663.8,167.9z M635.7,115.7
		c0-19.8-16.1-35.9-35.7-35.9c-19.7,0.1-35.9,16.3-35.9,35.9c0,19.4,16.2,35.5,35.6,35.5C619.6,151.2,635.7,135.4,635.7,115.7z"/>
	<path class="st0" d="M367.3,98.7c8.8-7.9,17.6-15.7,26.4-23.6c0.8-0.7,1.8-1.3,2.4-2.1c9-12.5,22-12.9,35.5-11.7
		c0.6,0,1.1,0.3,3,0.9c-20,17.8-39.4,35-59.3,52.8c19.5,17.4,38.6,34.3,57.7,51.3l-0.5,1.1c-8,0-16.1,0.1-24.1-0.1
		c-1.1,0-2.3-1.4-3.3-2.3c-12-10.8-24.1-21.5-36.1-32.3c-0.5-0.5-1.2-0.9-2.5-1.9c-0.2,2.1-0.4,3.5-0.4,4.9c0,9.7-0.1,19.4,0.1,29.1
		c0.1,3.7-1.2,4.9-4.8,4.7c-3.4-0.2-6.8,0.2-10.1-0.2c-1.2-0.2-2.4-1.9-3.3-3.2c-0.4-0.6-0.1-1.8-0.1-2.7c0-44.6,0.1-89.2-0.1-133.8
		c0-4.5,1.3-5.8,5.7-5.7C366,24,366,23.8,366,36.6c0,18.9,0,37.8,0,56.7c0,1.6,0,3.2,0,4.9C366.4,98.4,366.9,98.6,367.3,98.7
		L367.3,98.7z"/>
	<path class="st0" d="M178.8,113.8c0,30.7,0,61.4,0,92c0,4.9-0.4,5.2-5.4,4.9c-1.1-0.1-2.2-0.2-3.3-0.4c-3.5-0.8-5.3-2.3-5.3-6.6
		c0.2-56.4,0.1-112.7,0.1-169.1c0-3.4-1.7-5.1-5.1-5.1c-13.2,0-26.5-0.1-39.7,0.1c-3.3,0-4.7-0.7-4.6-4.4c0.4-10.1-1.3-8.7,8.8-8.7
		c16.6-0.1,33.2,0.1,49.8-0.1c3.6,0,4.7,1,4.7,4.7C178.8,51.9,178.8,82.9,178.8,113.8L178.8,113.8z"/>
	<path class="st0" d="M125.2,242.3c6.8,1.7,13.8,3.1,20.5,5.2c5.1,1.6,9.9,4.1,14.9,6.1c7.9,3.2,15.8,2.7,23.7-0.5
		c6.9-2.8,13.8-5.8,20.9-8.1c12.5-4,24.7-1.9,36.5,3.2c2.5,1.1,5.1,2.1,7.5,3.4c11.1,5.8,22.1,5.2,33-0.3c8.4-4.2,17-7.6,26.6-8.1
		c3.3-0.1,4.9,0.5,4.6,4.2c-0.3,3.3,1,7.6-0.6,9.8c-1.5,2-6.1,1.6-9.2,2.6c-5.4,1.9-10.9,3.7-16,6.2c-16,8-31.5,6.5-47.1-1
		c-4.5-2.1-9.2-3.9-13.9-5.4c-10.6-3.4-20.1,0.7-29.4,5.2c-11.6,5.7-23.8,8.5-36.6,5.1c-6.1-1.6-11.9-4.4-17.8-6.8
		c-7.7-3.2-15.4-6-23.9-3.9c-2.1,0.5-3-0.4-2.9-2.5c0.1-3,0.2-6,0-9c-0.2-3.2,0.9-4.7,4.2-4.5c1.6,0.1,3.2,0,4.9,0
		C125.1,243,125.2,242.6,125.2,242.3L125.2,242.3z"/>
	<path class="st0" d="M115.9,218c0-8.6,0-8.6,8.7-8.6c7.8,0,15.4,1.6,22.6,4.7c4.8,2.1,9.6,4.1,14.5,6c8.2,3.2,16.1,1.8,24-1.4
		c7.3-3,14.6-6,22.1-8.2c12.5-3.6,24.4-0.4,36,4.8c1.2,0.6,2.6,1,3.8,1.7c12.2,6.9,24.3,6.1,36.4-0.3c7.9-4.2,16.3-6.8,25.3-7.3
		c3.2-0.2,4.3,0.8,4.1,4c-0.2,3,0.1,6-0.1,9c-0.1,0.9-1.2,2.5-1.9,2.6c-9,0.3-16.9,4.3-24.8,7.9c-15.2,7.1-29.9,5.9-44.8-0.9
		c-5.6-2.6-11.5-4.9-17.5-6.4c-9.4-2.3-18,1.1-26.2,5.3c-10.4,5.3-21.4,8.4-32.9,6.2c-7.8-1.5-15.4-4.7-22.9-7.8s-14.9-5.1-22.9-3.9
		c-2.4,0.4-3.5-0.5-3.4-3C116,221,115.9,219.5,115.9,218L115.9,218z"/>
	<path class="st0" d="M994.3,123.3c-7.8,0-15.7-0.1-23.5,0.1c-3.5,0.1-4.5-1.3-4.5-4.6c-0.2-12.1-0.3-12.1,11.6-12.1
		c7.2,0,14.5,0,21.7,0c4.4,0,5-1,3.4-4.8c-5.9-14.4-22.2-23.8-37.2-21.7c-17.4,2.5-29.5,14.8-31.4,31.9
		c-1.7,15.4,7.8,31.4,22.3,36.7c3.5,1.3,7.4,1.9,11.2,2.3c2.9,0.3,4.2,1.1,4.1,4.1c-0.2,2.6,0,5.2,0,7.8c0,6.4-0.2,6.7-6.4,5.9
		c-22.9-2.8-39.2-14.8-46.4-36.7c-7.1-21.6-1.9-41.2,15.2-56.7c15.2-13.8,33.4-17.1,52.6-10.8c18.9,6.2,30.8,19.7,35.2,39.3
		c1,4.7,1,9.7,1.4,14.6c0.3,3.3-1.4,4.6-4.7,4.6C1010.6,123.2,1002.4,123.3,994.3,123.3L994.3,123.3z"/>
	<path class="st0" d="M570,261.5c-12.8,0-23-10-23-22.8c0-13.1,10.2-23.4,23.2-23.2c12.8,0.1,22.7,10.2,22.7,23.2
		S583,261.5,570,261.5z M569.7,223.7c-8.2,0.1-14.2,6.3-14.3,14.7c-0.1,8.5,6.3,15,14.6,15c8,0,14.2-6.5,14.2-14.8
		C584.3,230,578.1,223.7,569.7,223.7L569.7,223.7z"/>
	<path class="st0" d="M695.3,261.5c-12.8,0-22.9-10.2-22.8-23c0-12.8,10.2-23,22.9-23.1c12.9-0.1,23.2,10.4,23,23.4
		C718.3,251.8,708.3,261.5,695.3,261.5z M709.8,238.8c0.1-8.7-6-15.1-14.3-15.1c-8.2,0-14.2,6.1-14.4,14.6
		c-0.2,8.5,6.1,15.1,14.4,15.1C703.5,253.5,709.7,247.1,709.8,238.8L709.8,238.8z"/>
	<path class="st0" d="M749.1,235.5c-1,1.4-2.1,2.7-2.9,4.1c-3.5,5.8-7.2,11.7-10.5,17.6c-1.6,2.8-3.9,4.5-6.7,3.2
		c-1.4-0.6-2.4-3.5-2.4-5.4c-0.2-11.4,0-22.8-0.1-34.2c0-2.9,0.5-4.6,4-4.6c3.4,0,4.6,1.2,4.5,4.6c-0.2,6.9-0.1,13.9-0.1,20.8
		c0.4,0.1,0.8,0.3,1.3,0.4c0.9-1.2,1.8-2.3,2.6-3.6c3.8-6.3,7.6-12.5,11.1-18.9c1.6-3,4.1-4.1,6.8-2.9c1.2,0.5,1.9,3.4,1.9,5.2
		c0.2,11.2,0,22.5,0.1,33.7c0,3.1-0.3,5.3-4.3,5.3c-4.1,0-3.9-2.5-3.9-5.2c0-6.6,0-13.2,0-19.7C749.9,235.7,749.5,235.6,749.1,235.5
		L749.1,235.5z"/>
	<path class="st0" d="M1087.9,235.9c-0.9,1.2-2,2.4-2.8,3.6c-3.6,5.8-7.2,11.6-10.5,17.6c-1.6,2.8-4,4.6-6.7,3.2
		c-1.5-0.7-2.6-3.8-2.6-5.8c-0.2-11.2,0-22.5-0.2-33.7c0-3.3,0.9-4.7,4.4-4.7c3.7,0,4.3,1.7,4.2,4.8c-0.2,5.4-0.1,10.8-0.1,16.1
		c0,1.5,0.2,3.1,1.4,4.9c1.6-2.5,3.2-5,4.7-7.6c3-5,6.1-10,8.9-15.2c1.7-3.1,4.3-3.7,6.9-2.7c1.1,0.4,1.8,3.1,1.8,4.8
		c0.2,11.6,0.1,23.1,0.1,34.7c0,2.7-0.1,4.8-3.8,4.7c-3.4,0-4.6-1.4-4.6-4.7c0.1-6.6,0-13.2,0-19.8
		C1088.8,236.2,1088.4,236.1,1087.9,235.9L1087.9,235.9z"/>
	<path class="st0" d="M829.1,235.8c-3.3,5.4-6.5,10.7-9.8,16.1c-1.5,2.4-2.6,5.1-4.5,6.9c-1.3,1.2-3.8,1.8-5.6,1.6
		c-0.9-0.1-2.1-2.6-2.2-4.1c-0.2-12.1,0-24.1-0.1-36.2c0-3.1,1.3-3.9,4.2-3.9c2.7,0,4.3,0.7,4.2,3.8c-0.2,5.7-0.1,11.4,0,17.1
		c0,1.5,0.2,3.1,1.3,4.9c0.8-1.1,1.7-2.1,2.3-3.3c3.9-6.4,7.8-12.8,11.4-19.4c1.6-2.8,3.9-3.9,6.4-2.9c1.2,0.5,2.2,3.2,2.2,4.9
		c0.2,11.4,0.1,22.8,0.1,34.2c0,3-0.4,5-4.2,5c-3.9,0-4.1-2.3-4-5.1c0.1-6.4,0-12.9,0-19.3C830.3,236.1,829.7,235.9,829.1,235.8
		L829.1,235.8z"/>
	<path class="st0" d="M984.2,236.5c5,3.5,7.8,8,6.2,14.2c-1.3,4.8-4.2,8.3-9.2,9.1c-4.8,0.7-9.7,0.9-14.6,0.7
		c-1.3-0.1-3.4-2.5-3.5-4c-0.3-12.2-0.2-24.4,0-36.6c0-1.2,1.8-3.4,2.9-3.4c4.4-0.1,8.9-0.2,13.1,0.9c8.1,2.1,10.6,9.2,6.5,16.4
		C985.1,234.6,984.7,235.4,984.2,236.5L984.2,236.5z M970.6,247.9c1.5,1.5,2.8,4.1,4.5,4.3c4.6,0.7,7.5-1.7,7.3-5
		c-0.3-4.3-3.2-5.5-7-5.8C970.7,241,971.7,244.3,970.6,247.9L970.6,247.9z M969.9,229c2.2,2.2,4,4.7,4.5,4.4c1.9-1,3.4-2.8,5-4.3
		c-1.6-1.6-3-3.6-4.9-4.5C974,224.4,972,227,969.9,229L969.9,229z"/>
	<path class="st0" d="M417.7,236.3c0.9,0.8,1.8,1.5,2.6,2.2c3.6,3.3,4.7,7.3,3.7,12c-1,4.7-3.8,8.2-8.5,9c-5.1,0.9-10.4,1-15.5,0.9
		c-1.1,0-3.1-2.1-3.1-3.3c-0.2-12.5-0.2-25.1,0-37.6c0-1.1,1.7-3.1,2.7-3.1c4.2-0.1,8.6-0.3,12.6,0.6c9,2,12.1,11.7,6.6,17.3
		C418.2,234.8,418.1,235.5,417.7,236.3L417.7,236.3z M405.1,247.1c0.2,2.1-0.9,5.4,3.6,5.4c4.5,0,7.4-2,7.2-5.4
		c-0.3-4.3-3.3-5.4-7.1-5.7C404.6,241.1,405,243.9,405.1,247.1z M403.6,229.2c1.9,2,3.7,4.5,4.2,4.3c1.9-0.9,3.4-2.8,5-4.2
		c-1.7-1.6-3.4-3.2-5.1-4.8C406.6,225.7,405.4,227.1,403.6,229.2L403.6,229.2z"/>
	<path class="st0" d="M513.3,260.2c-5.3,1.3-8.7,0.7-10.1-5c-0.4-1.6-3.2-3-5.3-3.7c-1.9-0.6-4.2,0-6.3-0.2
		c-5.1-0.5-9.2,0.1-10.5,6.4c-0.8,3.9-4.5,3.2-7.2,2.6c-0.5-0.1-0.8-3.6-0.2-5.2c4.2-11.4,8.7-22.8,13-34.2c1-2.7,2-4.8,5.7-4.8
		c3.6,0,5.1,1.3,6.3,4.5c4.6,12.3,9.5,24.5,14.2,36.8C513.3,258.2,513.2,259,513.3,260.2L513.3,260.2z M498.6,243.1
		c-1.9-5-3.5-9-5.1-13l-1.5,0.1c-1.5,4.1-3,8.1-4.8,12.9H498.6z"/>
	<path class="st0" d="M798.8,217.1c-4.1,5.3-7.6,10.2-11.5,14.7c-2.7,3.1-3.1,5.3-0.3,8.8c4.7,6,8.7,12.5,13,18.8
		c-5.5,2.6-8.5,1.9-11.6-2.5c-3.2-4.4-6.3-8.9-9.4-13.3c-0.5,0.1-1,0.3-1.5,0.4c0,4-0.1,7.9,0,11.9c0.1,3.1-0.7,4.9-4.3,4.9
		c-3.5,0-4.5-1.5-4.5-4.8c0.1-11.9,0.1-23.8,0-35.7c0-3.4,1.6-4.1,4.5-4.1c3.1,0,4.6,1,4.4,4.2c-0.2,2.7,0,5.4,0,8.1
		c0.5,0.2,1,0.4,1.5,0.6c2.3-2.7,4.9-5.2,6.7-8.2C788.6,216,792.7,215.5,798.8,217.1L798.8,217.1z"/>
	<path class="st0" d="M622.1,261.5c-10.7,0-19.5-6-22.3-15c-3.3-11,0.3-21.7,9.3-27.5c8.7-5.5,21.7-4.7,29.2,2.2
		c1,0.9,1.7,3.6,1.1,4.6c-1.2,1.9-2.9,4.1-6,2.1c-2.3-1.5-4.7-3.1-7.3-3.8c-7.3-1.9-14.4,1.3-17.5,7.3c-3,5.7-1.6,14,3,18
		c5.6,5,13.4,5.3,19.9,1.1c1.6-1,4-2.3,5.4-1.7c4.3,1.9,4.7,5.1,0.6,7.5c-4.6,2.7-9.9,4.3-14.8,6.4
		C622.5,262.4,622.3,261.9,622.1,261.5L622.1,261.5z"/>
	<path class="st0" d="M849.1,238.3c0-5.9,0.1-11.7,0-17.6c-0.1-3.1,0.9-4.5,4.2-4.4c5.4,0.1,10.8,0.1,16.2,0c2.8-0.1,4.2,1,4.1,4
		c0,2.8-0.9,4.4-3.9,4.3c-2.5-0.1-4.9,0.1-7.3,0c-3-0.2-4.6,0.9-4.6,4.1c0,3.1,1.6,4,4.3,3.9c2.5-0.1,4.9,0,7.3,0
		c2.9-0.1,4.1,1.3,4.1,4.2c0,3-1.5,4.1-4.3,4c-1.5,0-2.9,0-4.4,0c-6.8,0-8.7,2.3-6.9,8.9c0.3,1.1,2.1,2.4,3.4,2.6
		c2.5,0.4,5.2,0.2,7.8,0.1c3.1-0.1,4.4,1.4,4.4,4.5c0,3-1.5,4.1-4.2,4c-5.2,0-10.5-0.1-15.7,0c-3.5,0.1-4.5-1.7-4.5-4.8
		C849.1,250,849.1,244.1,849.1,238.3L849.1,238.3z"/>
	<path class="st0" d="M999,238.7c0-6,0.1-12.1,0-18.1c-0.1-3,0.8-4.5,4.2-4.4c5.4,0.2,10.8,0.2,16.2,0c3.1-0.1,3.9,1.3,3.9,4.2
		c0,2.8-0.9,4.3-3.9,4.2c-2.4-0.1-4.9,0.1-7.3-0.1c-2.9-0.2-4.6,0.6-4.6,4c0,3.5,1.8,4.1,4.6,4c2.3-0.1,4.6,0.1,6.9,0
		c3.1-0.2,4.4,1.1,4.4,4.3c0,3.1-1.5,4-4.3,3.9c-1.3-0.1-2.6,0-3.9,0c-7.8,0-8.6,0.8-7.5,8.3c0.2,1.2,1.9,2.9,3.2,3.1
		c2.5,0.5,5.2,0.3,7.8,0.1c3.3-0.2,4.7,1.1,4.7,4.6c0,3.4-1.9,4-4.7,4c-5.1-0.1-10.1-0.1-15.2,0c-3.3,0.1-4.3-1.4-4.3-4.4
		C999,250.5,999,244.6,999,238.7L999,238.7z"/>
	<path class="st0" d="M428,259.5c2.6-7,5.2-13.9,7.9-20.9c2.4-6.4,4.7-12.9,7.6-19.1c0.7-1.5,3.3-3,5.1-3c1.8-0.1,4.8,1.2,5.4,2.6
		c5.1,12.5,9.9,25.1,14.7,37.7c0.3,0.9,0.2,1.9,0.4,2.8c-6.3,2.1-8,1.3-10.1-4.5c-2.7-7.3-5.5-14.6-8.2-21.9c-0.3-0.8-1-1.6-1.8-2.9
		c-0.9,1.3-1.6,2-2,2.9c-3,7.6-5.9,15.2-8.9,22.8C436,261.1,434.4,261.7,428,259.5L428,259.5z"/>
	<path class="st0" d="M1030.8,238.7c0-6.2-0.2-12.4,0.1-18.6c0.1-1.3,1.6-3.6,2.5-3.6c4.5-0.2,9.2-0.4,13.7,0.4
		c6.7,1.1,10.2,6.1,9.8,13.1c-0.3,6.3-4.5,10.8-11.1,11.6c-4.5,0.6-6.7,3.2-6.7,7.8c0,2.3-0.1,4.6,0,6.8c0.1,2.9-0.6,4.6-4.1,4.5
		c-3.2-0.1-4.3-1.4-4.3-4.4C1030.9,250.5,1030.8,244.6,1030.8,238.7L1030.8,238.7z M1043.6,223.5c-4.9,0.9-4.3,3.6-4.5,6
		c-0.2,3.2,1.3,4.4,4.4,4.1c2.8-0.3,5.8-1.3,5-4.4C1048,227.1,1045.3,225.4,1043.6,223.5L1043.6,223.5z"/>
	<path class="st0" d="M520.6,238.1c0-5.9,0.1-11.7,0-17.6c0-2.8,0.7-4.3,3.8-4.2c4.9,0.1,9.8,0.1,14.7,0c2.8-0.1,3.6,1.3,3.6,3.9
		c0,2.7-0.5,4.2-3.7,4.4c-10,0.7-10,0.8-10,11.1c0,6.8-0.1,13.7,0,20.5c0,3-1,4.5-4.2,4.5c-3.3,0-4.2-1.7-4.2-4.6
		C520.7,250.1,520.6,244.1,520.6,238.1L520.6,238.1z"/>
	<path class="st0" d="M652.5,242.6c0-4.6,0-9.1,0-13.7c0-2.8-0.9-4.5-3.9-4.2c-3.9,0.3-4-2.2-4-5.1c0-3.1,1.8-3.4,4.2-3.3
		c5.4,0.1,10.8,0.1,16.2,0c2.5,0,4.1,0.6,4,3.5c0,2.6-0.1,5.1-3.7,4.9c-4-0.3-4.5,2.1-4.5,5.3c0.1,8.6,0,17.3,0.1,25.9
		c0,2.9-0.3,5-4.1,5c-3.7-0.1-4.3-1.9-4.3-5C652.6,251.4,652.5,247,652.5,242.6L652.5,242.6z"/>
	<path class="st0" d="M754.2,205.6c-1.8,5.5-5.7,7.6-13.1,7.1c-6-0.4-8.7-2.4-9.7-7.1H754.2z"/>
</g>
</svg>
