<?xml version="1.0" encoding="utf-8"?>
<!-- Generator: Adobe Illustrator 26.4.1, SVG Export Plug-In . SVG Version: 6.00 Build 0)  -->
<svg version="1.1" id="Слой_1" xmlns="http://www.w3.org/2000/svg" xmlns:xlink="http://www.w3.org/1999/xlink" x="0px" y="0px"
	 viewBox="0 0 499.1 99.6" style="enable-background:new 0 0 499.1 99.6;" xml:space="preserve">
<g>
	<path d="M28.5,73.4c-2.6,1.7-7.3,0.9-10.5-0.5c-4.3-2-7.5-3.9-18-1c0-19.8,0-41,0-60.8c3.1-0.8,6.2-1.6,9.3-2.4
		C17,6.8,26.4,4.8,34,2.9c0.8,0-0.2,0,0.5,0c0,28.6,0,57.1-0.1,85.7c0,9.9,0,11,0,11S8.1,99.6,0,99.7c0-3.7,0-8.2,0-12
		c5.4-3.3,11-3.8,16.6-0.5c2.8,1.7,4,1.6,6.4,1.8c3.1,0.3,5.4-1.2,5.4-1.2v-3.5c-5.4,2.1-7.4,0.2-10.4-1.1c-6.3-2.7-11.7-3-18-0.2
		c0-1.7,0-4.8,0-6.6c8.3-3.9,12.5-2.2,17.4,0.1c4.4,2.1,7.7,1.9,11,0.3"/>
	<path d="M498,78.3c-3.2,7.4-9.1,9.7-16.9,9.3c-6.9-0.4-13.9-0.1-21.1-0.1c0-13,0-25.6,0-38.4c2.4,0,4.7,0,7.6,0c0,4.4,0,8.8,0,13.6
		c5.2,0,10,0.2,14.7,0c7.6-0.4,13,2.4,15.7,9.8C498,74.3,498,76.3,498,78.3z M467.9,80.1c6.2,0,12.1,0.2,18-0.1
		c2.8-0.1,4.4-2.4,4.3-5.2c-0.1-2.6-1.6-4.7-4.3-4.8c-5.9-0.2-11.9-0.1-18-0.1C467.9,73.6,467.9,76.7,467.9,80.1z"/>
	<path d="M418.3,82.8c0,5.7,0,10.8,0,16.3c-2.5,0-4.7,0-7.1,0c0-17.6,0-35.2,0-53.1c2.1,0,4.2,0,6.6,0c0.3,1,0.6,2.1,0.9,3.2
		c14.3-6.7,24.3-5.4,31.5,4.1c6.3,8.3,5.7,19.7-1.3,27.4C441.2,89,430.5,89.9,418.3,82.8z M447.2,66.3c0.1-8-6.3-14.5-14.3-14.6
		c-8-0.1-14.6,6.3-14.6,14.3c-0.1,8,6.3,14.5,14.3,14.5C440.6,80.6,447.1,74.3,447.2,66.3z"/>
	<path d="M309.1,99.1c-2.3,0-4.4,0-6.9,0c0-5.3,0-10.6,0-16.6c-7,4.7-13.8,6.7-21.3,4.2c-4.8-1.6-8.6-4.4-11.5-8.5
		c-5.6-8.2-4.8-19,1.9-26.5c7.4-8.3,17-9.1,30.5-2.5c0.2-1.1,0.4-2.1,0.6-3.4c2.2,0,4.3,0,6.7,0C309.1,63.6,309.1,81.2,309.1,99.1z
		 M273,66.2c0,8,6.4,14.4,14.5,14.4c8,0,14.6-6.5,14.6-14.4c0-7.9-6.6-14.5-14.5-14.4C279.4,51.7,272.9,58.2,273,66.2z"/>
	<path d="M329.2,83.3c-2.8,0-5,0-7.6,0c0-12.7,0-25.4,0-38.5c5.4,0,10.8,0,16.3,0c2.7,0,5.5,0.1,8.2,0c5.2-0.1,9.2,2,11.7,6.5
		c2.5,4.6,2,9-0.9,13.3c-0.3,0.4-0.6,0.8-0.8,1.2c8.2,11.6-0.8,22-9.5,21.4c-0.3-3.2-1.8-6.5,3-8.4c1.1-0.5,2.1-3.6,1.7-5.1
		c-0.5-1.6-2.7-3.7-4.3-3.8c-5.8-0.5-11.6-0.2-17.8-0.2C329.2,74.3,329.2,78.6,329.2,83.3z M329.3,62.3c6,0,11.6,0.1,17.2,0
		c3-0.1,4.9-1.9,5.1-4.9c0.1-3-1.6-5.2-4.6-5.3c-5.8-0.3-11.7-0.1-17.7-0.1C329.3,55.5,329.3,58.7,329.3,62.3z"/>
	<path d="M171.1,49c2.6,0,4.8,0,7.3,0c0,4.4,0,8.7,0,13.5c6.5,0,12.7,0.2,18.8-0.2c1.4-0.1,3.2-2.5,3.6-4.1c0.3-1.4-0.7-4.3-1.8-4.7
		c-4.7-1.7-3.1-5.1-3.2-8.4c5-0.2,8.7,1.7,11.1,5.7c3.2,5.3,2.5,10.4-1.1,14.9c1,2.8,2.5,5.4,2.9,8.1c1,6.5-3.7,13-10.1,13.4
		c-9.1,0.5-18.2,0.1-27.5,0.1C171.1,74.5,171.1,61.9,171.1,49z M178.7,80.3c6,0,11.5,0.1,17.1,0c3.1-0.1,5.2-1.9,5.2-5.1
		c0.1-2.8-1.5-4.9-4.4-5c-5.9-0.2-11.9-0.1-18-0.1C178.7,73.5,178.7,76.7,178.7,80.3z"/>
	<path d="M126.9,87c-7.1,0.8-7.1,0.8-10.8-4.9c-5.8,4.5-12.3,6.7-19.8,5.1C85,84.8,77.4,73.2,79.8,61.9C82.4,50,93.7,42.6,105.7,45
		c11.4,2.3,19.4,13.9,16.7,25.1c-0.9,3.7-0.5,6.7,1.2,9.8C124.8,82.1,125.7,84.4,126.9,87z M115.6,66c0-8-6.6-14.4-14.5-14.3
		c-8,0.1-14.5,6.7-14.4,14.6c0.1,8,6.6,14.3,14.6,14.3C109.3,80.5,115.6,74.1,115.6,66z"/>
	<path d="M261,87.1c-4.7,0.4-9.3,1.5-10.2-4.7c-3.6,1.7-6.8,3.7-10.3,4.7c-9.4,2.6-19.3-1.8-24.1-10c-4.8-8.3-3.6-18.6,2.8-25.5
		c6.6-7.1,17.1-9,25.7-4.7c8.7,4.4,13.6,13.7,11.5,23.2c-0.9,4-0.2,7.2,1.6,10.5C259.1,82.6,260,84.8,261,87.1z M235.4,80.5
		c8-0.1,14.5-6.6,14.4-14.5c-0.1-7.9-6.8-14.4-14.7-14.3c-8,0.2-14.5,6.8-14.4,14.6C220.8,74.2,227.4,80.6,235.4,80.5z"/>
	<path d="M140.2,72c0,5.7,0,10.5,0,15.6c-2.4,0-4.6,0-7.1,0c0-19.3,0-38.5,0-58.1c2.2,0,4.5,0,7.1,0c0,9.9,0,19.7,0,30.3
		c4.6-4.1,9-7.2,12.5-11.2c4.1-4.7,9-4.9,15.4-4.1c-8.3,7.4-16.1,14.3-24.1,21.4c7.8,6.9,15.5,13.7,23.9,21.1
		c-5.7-0.1-10.4,1.3-14.5-3.2C149.7,79.8,145.2,76.4,140.2,72z"/>
	<path d="M384.2,69c0-2,0-3.9,0-6.3c4.9,0,9.8,0,14.7,0c-1.1-6.5-7.3-11.2-14-10.9c-7.4,0.3-13.3,5.9-13.9,13.1
		c-0.8,8.5,4.3,14,15,16.2c0,2.1,0,4.3,0,6.5c-11.2,1.3-21.9-8.6-22.3-20.2c-0.4-13,9.7-23,22.8-22.5c12.5,0.5,21.9,11.4,20.4,24.3
		C399.4,69,391.9,69,384.2,69z"/>
	<polyline points="54,71.1 53.6,16 53.6,12.6 38.2,12.6 38.3,8.1 58.5,8 58.5,11.4 58.6,71.2 	"/>
	<path d="M37.9,77.5v-5.2c0,0,9-0.1,11.2,1.5c3.2,2.3,10.2,2.9,13.1,0.6c3.3-2.5,9.4-2.2,9.4-2.2c0,2,0,3.1,0,4.5
		c0,0-5.2-0.1-9.6,2.7c-1.8,1.2-10.2,1.2-14-0.4C44,77.3,37.9,77.5,37.9,77.5z"/>
	<path d="M37.6,88.4v-5.2c0,0,9-0.1,11.2,1.5c3.2,2.3,10.2,2.9,13.1,0.6c3.3-2.5,9.4-2.2,9.4-2.2c0,2,0,3.1,0,4.5
		c0,0-5.2-0.1-9.6,2.7c-1.8,1.2-10.2,1.2-14-0.4C43.7,88.2,37.6,88.4,37.6,88.4z"/>
</g>
</svg>
