<?xml version="1.0" encoding="utf-8"?>
<!-- Generator: Adobe Illustrator 26.4.1, SVG Export Plug-In . SVG Version: 6.00 Build 0)  -->
<svg version="1.1" id="Слой_1" xmlns="http://www.w3.org/2000/svg" xmlns:xlink="http://www.w3.org/1999/xlink" x="0px" y="0px"
	 viewBox="0 0 24 24" style="enable-background:new 0 0 24 24;" xml:space="preserve">
<style type="text/css">
	.st0{fill:#2E4493;}
</style>
<path class="st0" d="M5,6c0,0.6-0.4,1-1,1S3,6.6,3,6s0.4-1,1-1S5,5.4,5,6z M7,6c0-0.6,0.4-1,1-1h12c0.6,0,1,0.4,1,1s-0.4,1-1,1H8
	C7.4,7,7,6.6,7,6z M7,12c0-0.6,0.4-1,1-1h12c0.6,0,1,0.4,1,1s-0.4,1-1,1H8C7.4,13,7,12.6,7,12z M8,17c-0.6,0-1,0.4-1,1s0.4,1,1,1h6
	c0.6,0,1-0.4,1-1s-0.4-1-1-1H8z M4,13c0.6,0,1-0.4,1-1s-0.4-1-1-1s-1,0.4-1,1S3.4,13,4,13z M5,18c0,0.6-0.4,1-1,1s-1-0.4-1-1
	s0.4-1,1-1S5,17.4,5,18z"/>
</svg>
