<?xml version="1.0" encoding="utf-8"?>
<!-- Generator: Adobe Illustrator 26.4.1, SVG Export Plug-In . SVG Version: 6.00 Build 0)  -->
<svg version="1.1" id="Слой_1" xmlns="http://www.w3.org/2000/svg" xmlns:xlink="http://www.w3.org/1999/xlink" x="0px" y="0px"
	 viewBox="0 0 24 24" style="enable-background:new 0 0 24 24;" xml:space="preserve">
<style type="text/css">
	.st0{fill:#2E4493;}
</style>
<path class="st0" d="M11,5c-3.3,0-6,2.7-6,6s2.7,6,6,6s6-2.7,6-6S14.3,5,11,5z M3,11c0-4.4,3.6-8,8-8c4.4,0,8,3.6,8,8
	c0,1.8-0.6,3.5-1.7,5l4.4,4.3c0.4,0.4,0.4,1,0,1.4c-0.4,0.4-1,0.4-1.4,0l-4.4-4.4c-3.5,2.7-8.5,2-11.2-1.5C3.6,14.5,3,12.8,3,11z"/>
</svg>
