<?xml version="1.0" encoding="UTF-8"?>
<svg id="_Слой_2" data-name="Слой 2" xmlns="http://www.w3.org/2000/svg" viewBox="0 0 253.57 253.86">
  <defs>
    <style>
      .cls-1 {
        fill: #2e4493;
      }
    </style>
  </defs>
  <g id="_Слой_1-2" data-name="Слой 1">
    <g>
      <path class="cls-1" d="M0,253.8c5.6-19.91,11-39.32,16.56-58.7,.78-2.72,.56-4.93-.83-7.34-8.06-13.96-12.68-29.15-14.76-45.02-1.65-12.53-1-25.08,1.15-37.63,3.09-18.09,9.82-34.62,20.18-49.61C42.2,26.72,69.62,9.08,103.83,2.2,111.49,.66,119.47-.12,127.29,.01c29.82,.51,56.73,9.79,79.87,28.77,22.93,18.82,37.51,43.04,43.94,71.97,1.54,6.93,1.87,14.18,2.28,21.3,1.52,26.6-5.5,50.99-19.81,73.29-14.9,23.22-35.36,39.86-61.04,49.9-12.02,4.7-24.53,7.11-37.5,8.11-23.63,1.81-45.6-3.29-66.48-13.93-2.69-1.37-4.95-1.6-7.89-.81-19.35,5.2-38.77,10.16-58.18,15.17-.64,.17-1.36,.02-2.47,.02Zm29.91-28.84c9.46-2.45,18.43-4.44,27.18-7.14,7.05-2.17,12.85-1.7,19.64,2.18,22.02,12.58,46.11,15.65,70.77,10.83,25.92-5.07,47.2-18.46,63.47-39.48,13.08-16.91,20.03-36.2,21.72-57.36,.73-9.16-.14-18.3-1.9-27.41-4.8-24.81-17.04-45.31-36.34-61.2-25.37-20.9-54.86-28.26-87.13-22.53-20.65,3.66-38.75,13.15-53.85,27.94-16.44,16.11-26.81,35.34-30.74,58.15-2.02,11.73-2.21,23.4-.38,35.03,2.38,15.07,8.08,28.96,16.29,41.84,.8,1.26,1.12,3.32,.74,4.77-2.96,11.26-6.16,22.46-9.47,34.37Z"/>
      <path class="cls-1" d="M84.07,67.47c2.57,.25,5.21,.24,7.69,.86,1.16,.29,2.43,1.59,2.95,2.75,4.05,9.08,8.06,18.18,11.74,27.41,.53,1.33-.29,3.72-1.27,5.03-2.68,3.59-5.72,6.91-8.72,10.24-1.81,2.01-2.08,3.93-.69,6.34,10.42,18.03,25.47,30.55,44.82,38.03,2.11,.82,3.89,.61,5.34-1.26,3.04-3.91,6.15-7.76,9.13-11.71,2.84-3.76,3.99-4.15,8.13-2.24,8.09,3.73,16.16,7.52,24.27,11.21,3.18,1.45,4.56,3.13,3.55,7.1-1.49,5.84-2.86,11.52-7.04,16.17-4.85,5.39-10.94,8.4-17.94,9.58-13.23,2.25-24.9-3.04-36.21-8.54-27.69-13.44-48.8-33.88-62.14-61.74-2.75-5.75-4.3-12.46-4.73-18.85-.82-12.07,5.19-21.45,14.44-28.72,1.69-1.33,4.33-1.46,6.52-2.14,.05,.16,.1,.32,.15,.48Z"/>
    </g>
  </g>
</svg>