<?xml version="1.0" encoding="utf-8"?>
<!-- Generator: Adobe Illustrator 26.4.1, SVG Export Plug-In . SVG Version: 6.00 Build 0)  -->
<svg version="1.1" id="_Слой_2" xmlns="http://www.w3.org/2000/svg" xmlns:xlink="http://www.w3.org/1999/xlink" x="0px"
	 y="0px" viewBox="0 0 253.6 253.9" style="enable-background:new 0 0 253.6 253.9;" xml:space="preserve">
<style type="text/css">
	.st0{fill:#27A71A;}
</style>
<g id="_Слой_1-2">
	<g>
		<path class="st0" d="M0,253.8c5.6-19.9,11-39.3,16.6-58.7c0.8-2.7,0.6-4.9-0.8-7.3c-8.1-14-12.7-29.1-14.8-45
			c-1.6-12.5-1-25.1,1.2-37.6c3-18.2,9.7-34.7,20.1-49.7C42.2,26.7,69.6,9.1,103.8,2.2c7.7-1.5,15.6-2.3,23.5-2.2
			c29.8,0.5,56.7,9.8,79.9,28.8c22.9,18.8,37.5,43,43.9,72c1.5,6.9,1.9,14.2,2.3,21.3c1.5,26.6-5.5,51-19.8,73.3
			c-14.9,23.2-35.4,39.9-61,49.9c-12,4.7-24.5,7.1-37.5,8.1c-23.6,1.8-45.6-3.3-66.5-13.9c-2.7-1.4-5-1.6-7.9-0.8
			c-19.3,5.2-38.8,10.2-58.2,15.2C1.8,253.9,1.1,253.8,0,253.8L0,253.8z M29.9,225c9.5-2.4,18.4-4.4,27.2-7.1
			c7-2.2,12.9-1.7,19.6,2.2c22,12.6,46.1,15.6,70.8,10.8c25.9-5.1,47.2-18.5,63.5-39.5c13.1-16.9,20-36.2,21.7-57.4
			c0.7-9.2-0.1-18.3-1.9-27.4c-4.8-24.8-17-45.3-36.3-61.2c-25.4-20.9-54.9-28.3-87.1-22.5C86.7,26.5,68.6,36,53.5,50.8
			C37,66.9,26.7,86.1,22.7,108.9c-2,11.7-2.2,23.4-0.4,35c2.4,15.1,8.1,29,16.3,41.8c0.8,1.3,1.1,3.3,0.7,4.8
			C36.4,201.8,33.2,213,29.9,225L29.9,225z"/>
		<path class="st0" d="M84.1,67.5c2.6,0.2,5.2,0.2,7.7,0.9c1.2,0.3,2.4,1.6,2.9,2.8c4.1,9.1,8.1,18.2,11.7,27.4
			c0.5,1.3-0.3,3.7-1.3,5c-2.7,3.6-5.7,6.9-8.7,10.2c-1.8,2-2.1,3.9-0.7,6.3c10.4,18,25.5,30.6,44.8,38c2.1,0.8,3.9,0.6,5.3-1.3
			c3-3.9,6.1-7.8,9.1-11.7c2.8-3.8,4-4.1,8.1-2.2c8.1,3.7,16.2,7.5,24.3,11.2c3.2,1.4,4.6,3.1,3.6,7.1c-1.5,5.8-2.9,11.5-7,16.2
			c-4.9,5.4-10.9,8.4-17.9,9.6c-13.2,2.2-24.9-3-36.2-8.5C102.1,165,81,144.6,67.7,116.7c-2.8-5.8-4.3-12.5-4.7-18.8
			c-0.8-12.1,5.2-21.5,14.4-28.7c1.7-1.3,4.3-1.5,6.5-2.1C84,67.2,84,67.3,84.1,67.5L84.1,67.5z"/>
	</g>
</g>
</svg>
