<?xml version="1.0" encoding="UTF-8"?>
<svg id="_Слой_2" data-name="Слой 2" xmlns="http://www.w3.org/2000/svg" viewBox="0 0 236.2 237.34">
  <defs>
    <style>
      .cls-1 {
        fill: #2e4493;
      }
    </style>
  </defs>
  <g id="_Слой_1-2" data-name="Слой 1">
    <g>
      <path class="cls-1" d="M236.2,118.61c-.24,7.26-.29,7.28-.36,9.04-1.55,38.72-19.9,68.11-50.84,89.97-17.49,12.36-37.16,18.63-58.99,19.56-23.25,1-44.96-2.84-65.11-14.35-17.9-10.22-32.28-24.25-42.96-41.97-2.58-4.28-2.22-7.96,.99-10.1,3.6-2.4,6.94-1.48,9.81,3.3,11.35,18.9,26.93,33.17,46.97,42.26,38.19,17.34,86.63,11.03,118.27-22.11,25.46-26.66,34.6-58.21,28.48-94.61-6.75-40.12-40.28-74.82-79.37-83.28-5.3-1.15-10.72-1.75-16.78-2.72-.12,2.44-.28,4.35-.29,6.26-.02,32.69-.06,65.39,.03,98.08,.01,3.5-.84,5.85-4.07,7.69-19.72,11.25-39.29,22.78-59.08,33.9-1.99,1.12-5.61,1.01-7.62-.09-1.49-.82-2.37-4.27-2.08-6.35,.23-1.67,2.36-3.46,4.08-4.47,17.13-10.11,34.3-20.15,51.57-30.01,3.02-1.72,4.01-3.7,4-7.1-.12-33.02,.04-66.05-.18-99.07-.01-1.74,.05-3.39,.31-4.9C113.72,3.12,117.67-.04,122.16,0h0c12.96,3-1.21,.17,.51,.26,11.66,.66,28.75,4.06,39.46,8.74,44.26,19.34,70.01,52.19,73.72,101.14"/>
      <path class="cls-1" d="M71.17,22.6c-.05,4-3.6,7.46-7.66,7.48-4.22,.02-7.49-3.22-7.5-7.45-.02-4.06,3.44-7.89,7.24-8,3.9-.12,7.97,3.99,7.92,7.98Z"/>
      <path class="cls-1" d="M22.2,70.82c-4.76-.05-7.32-2.65-7.23-7.35,.04-1.95,.78-3.86,2.22-5.18,5.69-5.21,13.42-.02,13.16,5.67-.17,3.84-3.81,6.91-8.15,6.86Z"/>
      <path class="cls-1" d="M7.12,127.5C2.68,127.4,.03,124.51,0,119.71c-.03-4.45,3.52-7.86,7.93-7.62,3.95,.21,7.06,3.89,6.89,8.15-.17,4.4-3.31,7.36-7.69,7.26Z"/>
    </g>
  </g>
</svg>